<svg width="561" height="573" viewBox="0 0 561 573" fill="none" xmlns="http://www.w3.org/2000/svg">
<path d="M111.995 339.619C111.995 345.433 109.685 351.009 105.574 355.12C101.462 359.232 95.8864 361.542 90.0721 361.542C84.2579 361.542 78.6817 359.232 74.5704 355.12C70.4591 351.009 68.1494 345.433 68.1494 339.619L90.0721 339.619H111.995Z" fill="#419BB4"/>
<path fill-rule="evenodd" clip-rule="evenodd" d="M267.891 452.155H290.938L290.938 429.108L313.745 429.108L313.745 452.155H336.792V474.962L313.745 474.962L313.745 498.009H290.938L290.938 474.962H267.891L267.891 452.155Z" fill="#EE8787"/>
<path d="M115.44 500.415L151.585 521.284L151.585 479.547L115.44 500.415Z" fill="#F24836"/>
<path d="M127.954 500.415L146.279 510.995L146.279 489.835L127.954 500.415Z" fill="#0D2037"/>
<path d="M161.996 500.415L198.141 521.284L198.141 479.547L161.996 500.415Z" fill="#F24836"/>
<path d="M174.51 500.415L192.835 510.995L192.835 489.835L174.51 500.415Z" fill="#0D2037"/>
<path d="M229.974 379.644L246.687 379.644L246.687 396.357L229.974 396.357L229.974 379.644Z" stroke="#0D2037" stroke-width="5"/>
<path d="M229.974 407.423L246.687 407.423L246.687 424.136L229.974 424.136L229.974 407.423Z" stroke="#0D2037" stroke-width="5"/>
<path d="M229.974 435.202L246.687 435.202L246.687 451.915L229.974 451.915L229.974 435.202Z" stroke="#0D2037" stroke-width="5"/>
<path d="M202.235 407.423L218.948 407.423L218.948 424.136L202.235 424.136L202.235 407.423Z" stroke="#0D2037" stroke-width="5"/>
<path d="M202.235 435.202L218.948 435.202L218.948 451.915L202.235 451.915L202.235 435.202Z" stroke="#0D2037" stroke-width="5"/>
<path d="M174.496 407.423L191.209 407.423L191.209 424.136L174.496 424.136L174.496 407.423Z" stroke="#0D2037" stroke-width="5"/>
<path d="M174.496 435.202L191.209 435.202L191.209 451.915L174.496 451.915L174.496 435.202Z" stroke="#0D2037" stroke-width="5"/>
<path d="M202.235 379.644L218.948 379.644L218.948 396.357L202.235 396.357L202.235 379.644Z" stroke="#0D2037" stroke-width="5"/>
<path d="M174.496 379.644L191.209 379.644L191.209 396.357L174.496 396.357L174.496 379.644Z" stroke="#0D2037" stroke-width="5"/>
<mask id="path-16-inside-1_395_12112" fill="white">
<path d="M1.49253 405.597C1.49253 421.626 7.86022 436.999 19.1948 448.334C30.5293 459.668 45.9023 466.036 61.9318 466.036C77.9613 466.036 93.3343 459.668 104.669 448.334C116.003 436.999 122.371 421.626 122.371 405.597L61.9318 405.597L1.49253 405.597Z"/>
</mask>
<path d="M1.49253 405.597C1.49253 421.626 7.86022 436.999 19.1948 448.334C30.5293 459.668 45.9023 466.036 61.9318 466.036C77.9613 466.036 93.3343 459.668 104.669 448.334C116.003 436.999 122.371 421.626 122.371 405.597L61.9318 405.597L1.49253 405.597Z" stroke="#0D2037" stroke-width="10" mask="url(#path-16-inside-1_395_12112)"/>
<mask id="mask0_395_12112" style="mask-type:alpha" maskUnits="userSpaceOnUse" x="1" y="405" width="122" height="62">
<path d="M1.49253 405.597C1.49253 421.626 7.86022 436.999 19.1948 448.334C30.5293 459.668 45.9023 466.036 61.9318 466.036C77.9613 466.036 93.3343 459.668 104.669 448.334C116.003 436.999 122.371 421.626 122.371 405.597L61.9318 405.597L1.49253 405.597Z" fill="#D9D9D9"/>
</mask>
<g mask="url(#mask0_395_12112)">
<line x1="155.007" y1="418.35" x2="48.2633" y2="525.093" stroke="#0D2037" stroke-width="5"/>
<line x1="144.837" y1="408.18" x2="38.0934" y2="514.923" stroke="#0D2037" stroke-width="5"/>
<line x1="134.667" y1="398.01" x2="27.9235" y2="504.753" stroke="#0D2037" stroke-width="5"/>
<line x1="124.497" y1="387.839" x2="17.7536" y2="494.583" stroke="#0D2037" stroke-width="5"/>
<line x1="114.327" y1="377.669" x2="7.58365" y2="484.413" stroke="#0D2037" stroke-width="5"/>
<line x1="104.156" y1="367.499" x2="-2.58725" y2="474.243" stroke="#0D2037" stroke-width="5"/>
<line x1="93.9865" y1="357.329" x2="-12.7572" y2="464.073" stroke="#0D2037" stroke-width="5"/>
<line x1="83.8166" y1="347.159" x2="-22.9271" y2="453.903" stroke="#0D2037" stroke-width="5"/>
<line x1="73.6467" y1="336.989" x2="-33.097" y2="443.733" stroke="#0D2037" stroke-width="5"/>
<line x1="63.4768" y1="326.819" x2="-43.2669" y2="433.563" stroke="#0D2037" stroke-width="5"/>
</g>
<path d="M403.213 179.39H359.403L381.308 141.45L403.213 179.39Z" stroke="#0D2037" stroke-width="5"/>
<path d="M403.213 126.43H359.403L381.308 88.4896L403.213 126.43Z" stroke="#0D2037" stroke-width="5"/>
<path d="M403.213 73.4691H359.403L381.308 35.5291L403.213 73.4691Z" stroke="#0D2037" stroke-width="5"/>
<path d="M269.933 554.224H226.123L248.028 516.284L269.933 554.224Z" stroke="#0D2037" stroke-width="5"/>
<path d="M338.292 539.893L338.292 518.854L356.512 529.373L338.292 539.893Z" stroke="#B4BCD1" stroke-width="3"/>
<path d="M438.329 144.511L438.329 165.549L420.109 155.03L438.329 144.511Z" stroke="#B4BCD1" stroke-width="3"/>
<path d="M199.369 1.01765C185.402 1.01765 172.006 6.56642 162.129 16.4433C152.252 26.3201 146.703 39.716 146.703 53.684C146.703 67.652 152.252 81.0479 162.129 90.9248C172.006 100.802 185.401 106.35 199.369 106.35L199.369 75.5251C193.577 75.5251 188.022 73.224 183.926 69.128C179.83 65.032 177.528 59.4766 177.528 53.684C177.528 47.8914 179.83 42.3361 183.926 38.2401C188.022 34.1441 193.577 31.843 199.369 31.843V1.01765Z" fill="#EE8787"/>
<path d="M104.529 25.8405H61.8369V68.5329H104.529V25.8405Z" fill="#0D2037"/>
<path d="M101.026 22.3379H58.334V65.0303H101.026V22.3379Z" fill="url(#paint0_linear_395_12112)"/>
<path d="M90.1485 46.0232H76.2165C72.6743 46.0232 69.8027 48.8937 69.8027 52.4346C69.8027 55.9756 72.6743 58.8461 76.2165 58.8461H90.1485C93.6908 58.8461 96.5623 55.9756 96.5623 52.4346C96.5623 48.8937 93.6908 46.0232 90.1485 46.0232Z" stroke="#0D2037" stroke-width="5" stroke-miterlimit="10"/>
<circle cx="495.699" cy="207.695" r="40.6036" stroke="#0D2037" stroke-width="5" stroke-linecap="round" stroke-dasharray="8 14"/>
<circle cx="488.092" cy="201.981" r="41.6819" fill="#419BB4"/>
<path d="M479.237 73.4183H456.153L439.83 89.7409V112.825L456.153 129.148H479.237L495.56 112.825V89.7409L479.237 73.4183Z" fill="#0D2037"/>
<path d="M474.665 68.8461H451.58L435.258 85.1686V108.253L451.58 124.576H474.665L490.987 108.253V85.1686L474.665 68.8461Z" fill="url(#paint1_linear_395_12112)"/>
<circle cx="280.5" cy="106.21" r="41.8788" transform="rotate(-90 280.5 106.21)" stroke="#0D2037" stroke-width="5"/>
<circle cx="280.5" cy="106.21" r="20.7283" transform="rotate(-90 280.5 106.21)" stroke="#0D2037" stroke-width="5"/>
<path d="M226.628 106.21C226.628 120.497 232.304 134.2 242.407 144.303C252.509 154.406 266.212 160.081 280.5 160.081C294.787 160.081 308.49 154.406 318.593 144.303C328.696 134.2 334.371 120.497 334.371 106.21L311.734 106.21C311.734 114.493 308.443 122.438 302.586 128.296C296.728 134.153 288.783 137.444 280.5 137.444C272.216 137.444 264.271 134.153 258.414 128.296C252.556 122.438 249.265 114.493 249.265 106.21L226.628 106.21Z" fill="#F24836"/>
<circle cx="60.6255" cy="114.054" r="8.69382" stroke="#0D2037" stroke-width="5"/>
<circle cx="60.6255" cy="168.147" r="8.69382" stroke="#0D2037" stroke-width="5"/>
<circle cx="60.6255" cy="222.241" r="8.69382" stroke="#0D2037" stroke-width="5"/>
<circle cx="88.5952" cy="141.101" r="8.69382" stroke="#0D2037" stroke-width="5"/>
<circle cx="88.5952" cy="195.194" r="8.69382" stroke="#0D2037" stroke-width="5"/>
<circle cx="60.6255" cy="141.101" r="8.69382" stroke="#0D2037" stroke-width="5"/>
<circle cx="60.6255" cy="195.194" r="8.69382" stroke="#0D2037" stroke-width="5"/>
<circle cx="88.5952" cy="114.054" r="8.69382" stroke="#0D2037" stroke-width="5"/>
<circle cx="88.5952" cy="168.147" r="8.69382" stroke="#0D2037" stroke-width="5"/>
<circle cx="88.5952" cy="222.241" r="8.69382" stroke="#0D2037" stroke-width="5"/>
<path d="M427.855 381.922H365.954V443.823H427.855V381.922Z" fill="#419BB4"/>
<path d="M360.368 434.718V376.475H418.611V434.718H360.368Z" stroke="#0D2037" stroke-width="3.65759"/>
<path d="M479.375 310.389C479.375 300.112 483.457 290.256 490.724 282.989C497.991 275.722 507.847 271.64 518.124 271.64C528.401 271.64 538.257 275.722 545.524 282.989C552.79 290.256 556.873 300.112 556.873 310.389L518.124 310.389L479.375 310.389Z" fill="#419BB4"/>
<path d="M479.375 349.138C479.375 338.861 483.457 329.005 490.724 321.738C497.991 314.471 507.847 310.389 518.124 310.389C528.401 310.389 538.257 314.471 545.524 321.738C552.79 329.005 556.873 338.861 556.873 349.138L518.124 349.138L479.375 349.138Z" fill="#0D2037"/>
<path d="M479.375 387.887C479.375 377.61 483.457 367.754 490.724 360.487C497.991 353.22 507.847 349.138 518.124 349.138C528.401 349.138 538.257 353.22 545.524 360.487C552.79 367.754 556.873 377.61 556.873 387.887H518.124H479.375Z" fill="#F24836"/>
<path d="M479.375 426.636C479.375 416.359 483.457 406.503 490.724 399.236C497.991 391.969 507.847 387.887 518.124 387.887C528.401 387.887 538.257 391.969 545.524 399.236C552.79 406.503 556.873 416.359 556.873 426.636H479.375Z" fill="#EE8787"/>
<path d="M7.31836 168.3L7.31837 339.122C7.31837 345.664 12.6202 350.968 19.1602 350.968C25.7003 350.968 31.0021 345.664 31.0021 339.122L31.0021 168.3C31.0021 161.757 25.7003 156.454 19.1602 156.454C12.6201 156.454 7.31836 161.757 7.31836 168.3Z" fill="url(#paint2_linear_395_12112)"/>
<path d="M146.789 172.583V163.117M146.789 163.117V153.651M146.789 163.117L137.322 163.117M146.789 163.117H156.255" stroke="#F24836" stroke-width="5" stroke-linecap="square"/>
<path d="M181.462 144.214V134.748M181.462 134.748V125.282M181.462 134.748L171.996 134.748M181.462 134.748H190.929" stroke="#B4BCD1" stroke-width="3" stroke-linecap="square"/>
<path d="M181.462 172.147V162.681M181.462 162.681V153.214M181.462 162.681L171.996 162.681M181.462 162.681H190.929" stroke="#B4BCD1" stroke-width="3" stroke-linecap="square"/>
<path d="M181.462 200.08V190.613M181.462 190.613V181.147M181.462 190.613L171.996 190.613M181.462 190.613H190.929" stroke="#B4BCD1" stroke-width="3" stroke-linecap="square"/>
<path d="M141.79 382.985H35.7373" stroke="#B4BCD1" stroke-width="3"/>
<path d="M427.855 232.013V222.547M427.855 222.547V213.081M427.855 222.547L418.389 222.547M427.855 222.547H437.321" stroke="#F24836" stroke-width="5" stroke-linecap="square"/>
<path d="M331.845 422.339V412.873M331.845 412.873V403.406M331.845 412.873L322.379 412.873M331.845 412.873H341.312" stroke="#F24836" stroke-width="5" stroke-linecap="square"/>
<path d="M372.853 237.979H338.973C331.163 230.169 314.183 213.189 305.093 204.099H237.343C228.103 213.339 211.653 229.789 203.463 237.979H169.583C160.343 247.219 143.893 263.669 135.703 271.859V305.739C143.033 313.069 159.043 329.079 169.583 339.619H203.463C209.063 334.019 214.923 328.159 220.403 322.679C226.283 328.559 232.413 334.689 237.343 339.619H305.093C310.693 334.019 316.553 328.159 322.033 322.679C327.913 328.559 334.043 334.689 338.973 339.619H372.853C385.133 327.339 398.633 313.839 406.733 305.739V271.859C398.923 264.049 381.943 247.069 372.853 237.979Z" fill="#0D2037"/>
<path d="M368.463 233.589H334.583C326.773 225.779 309.793 208.799 300.703 199.709H232.953C223.713 208.949 207.263 225.399 199.073 233.589H165.193C155.963 242.819 139.513 259.269 131.323 267.459V301.339C138.653 308.669 154.663 324.679 165.203 335.219H199.083C204.683 329.619 210.543 323.759 216.023 318.279C221.903 324.159 228.033 330.289 232.963 335.219H300.713C306.313 329.619 312.173 323.759 317.653 318.279C323.533 324.159 329.663 330.289 334.593 335.219H368.473C380.753 322.939 394.253 309.439 402.353 301.339V267.459C394.543 259.649 377.563 242.669 368.473 233.579L368.463 233.589Z" fill="#EE8787"/>
<path d="M228.411 183.114H226.961L225.936 184.139L190.774 219.301H156.037H154.587L153.562 220.326L111.129 262.759L110.104 263.785V265.234V310.27V311.72L111.129 312.745L153.573 355.189L154.598 356.214H156.047H202.083H203.533L204.558 355.189L215.753 343.994L226.947 355.189L227.972 356.214H229.422H304.634H306.084L307.109 355.189L318.303 343.994L329.498 355.189L330.523 356.214H331.973H382.008H383.458L384.483 355.189L426.927 312.745L427.952 311.72V310.27V265.234V263.785L426.927 262.759L384.482 220.314L383.456 219.289L382.006 219.289L347.259 219.299L312.098 184.139L311.073 183.114H309.623H228.411Z" stroke="#419BB4" stroke-width="7"/>
<circle cx="389.803" cy="496.648" r="13.0515" transform="rotate(-90 389.803 496.648)" stroke="#0D2037" stroke-width="7.50621"/>
<circle cx="433.922" cy="496.648" r="13.0515" transform="rotate(-90 433.922 496.648)" stroke="#0D2037" stroke-width="7.50621"/>
<circle cx="478.04" cy="496.648" r="13.0515" transform="rotate(-90 478.04 496.648)" stroke="#0D2037" stroke-width="7.50621"/>
<rect x="78.2266" y="269.664" width="4.07368" height="13.0281" fill="#0D2037"/>
<rect x="78.2266" y="293.299" width="4.07368" height="13.0281" fill="#0D2037"/>
<rect x="98.5947" y="285.958" width="4.07368" height="13.0281" transform="rotate(90 98.5947 285.958)" fill="#0D2037"/>
<rect x="74.96" y="285.958" width="4.07368" height="13.0281" transform="rotate(90 74.96 285.958)" fill="#0D2037"/>
<rect x="269.391" y="378.644" width="26.5322" height="26.5322" stroke="#B4BCD1" stroke-width="3"/>
<rect x="515.269" y="120.971" width="5.71143" height="24.0428" stroke="#B4BCD1" stroke-width="3"/>
<rect x="528.273" y="120.971" width="5.71143" height="24.0428" stroke="#B4BCD1" stroke-width="3"/>
<rect x="515.269" y="77.4691" width="5.71143" height="24.0428" stroke="#B4BCD1" stroke-width="3"/>
<rect x="528.273" y="77.4691" width="5.71143" height="24.0428" stroke="#B4BCD1" stroke-width="3"/>
<rect x="228.129" y="27.7417" width="104.744" height="13.5748" stroke="#B4BCD1" stroke-width="3"/>
<rect x="246.146" y="2.3418" width="13.57" height="13.5748" stroke="#B4BCD1" stroke-width="3"/>
<rect x="273.716" y="2.3418" width="13.57" height="13.5748" stroke="#B4BCD1" stroke-width="3"/>
<rect x="301.285" y="2.3418" width="13.57" height="13.5748" stroke="#B4BCD1" stroke-width="3"/>
<circle cx="453.978" cy="347.138" r="8.1167" transform="rotate(-90 453.978 347.138)" stroke="#B4BCD1" stroke-width="3"/>
<circle cx="455.978" cy="460.531" r="8.1167" transform="rotate(-90 455.978 460.531)" stroke="#B4BCD1" stroke-width="3"/>
<circle cx="146.789" cy="109.4" r="8.1167" transform="rotate(-90 146.789 109.4)" stroke="#B4BCD1" stroke-width="3"/>
<path d="M451.633 572.218V534.048H524.313V473.272L489.853 438.812H455.392V376.783L425.944 347.335L455.392 317.887V265.257" stroke="#3D4457" stroke-width="3" stroke-dasharray="6 6"/>
<path d="M150.5 398.542V436.512L86.0068 501.004V532.553H177.302V552.588" stroke="#3D4457" stroke-width="3" stroke-dasharray="6 6"/>
<path d="M20.5654 7.12927V86.9421H121.44V227.676L99.5109 249.605H48.7601V366.613" stroke="black" stroke-width="3" stroke-dasharray="6 6"/>
<defs>
<linearGradient id="paint0_linear_395_12112" x1="79.6802" y1="22.3379" x2="79.6802" y2="65.0303" gradientUnits="userSpaceOnUse">
<stop stop-color="#D7A6E0"/>
<stop offset="1" stop-color="#419BB4"/>
</linearGradient>
<linearGradient id="paint1_linear_395_12112" x1="463.123" y1="68.8461" x2="463.123" y2="124.576" gradientUnits="userSpaceOnUse">
<stop stop-color="#EE8787"/>
<stop offset="1" stop-color="#419BB4"/>
</linearGradient>
<linearGradient id="paint2_linear_395_12112" x1="19.1602" y1="156.454" x2="19.1602" y2="350.968" gradientUnits="userSpaceOnUse">
<stop stop-color="#EE8787"/>
<stop offset="1" stop-color="#419BB4"/>
</linearGradient>
</defs>
</svg>
