<svg width="1299" height="173" viewBox="0 0 1299 173" fill="none" xmlns="http://www.w3.org/2000/svg">
<path fill-rule="evenodd" clip-rule="evenodd" d="M0.56543 172.13V0.967285H38.4493V172.13H0.56543Z" fill="#FCB1B1"/>
<path fill-rule="evenodd" clip-rule="evenodd" d="M412.552 172.13V0.967285H450.436V172.13H412.552Z" fill="#FCB1B1"/>
<path fill-rule="evenodd" clip-rule="evenodd" d="M472.286 100.215C472.286 60.503 504.49 28.2993 544.201 28.2993C583.91 28.2993 616.117 60.4842 616.117 100.215V119.157H515.928C522.038 128.256 532.423 134.246 544.201 134.246H597.175V172.13H544.201C504.49 172.13 472.286 139.926 472.286 100.215ZM515.928 81.2728H572.479C566.371 72.1712 555.985 66.1832 544.201 66.1832C532.423 66.1832 522.038 72.1736 515.928 81.2728Z" fill="#FCB1B1"/>
<path fill-rule="evenodd" clip-rule="evenodd" d="M137.209 0.967285V111.299C137.209 123.967 147.488 134.246 160.156 134.246H174.134C186.801 134.246 197.08 123.967 197.08 111.299V92.0682H234.964V111.299C234.964 144.89 207.724 172.13 174.134 172.13H160.156C126.565 172.13 99.3252 144.89 99.3252 111.299V0.967285H137.209Z" fill="#FCB1B1"/>
<path fill-rule="evenodd" clip-rule="evenodd" d="M176.265 73.7657H60.2842V35.8818H176.265V73.7657Z" fill="#FCB1B1"/>
<path fill-rule="evenodd" clip-rule="evenodd" d="M292.947 0.967285V111.299C292.947 123.967 303.226 134.246 315.894 134.246H329.872C342.54 134.246 352.818 123.967 352.818 111.299V92.0682H390.702V111.299C390.702 144.89 363.462 172.13 329.872 172.13H315.894C282.303 172.13 255.063 144.89 255.063 111.299V0.967285H292.947Z" fill="#FCB1B1"/>
<path fill-rule="evenodd" clip-rule="evenodd" d="M332.004 73.7657H216.022V35.8818H332.004V73.7657Z" fill="#FCB1B1"/>
<path fill-rule="evenodd" clip-rule="evenodd" d="M743.38 88.3531C730.712 88.3531 720.434 98.6317 720.434 111.3C720.434 123.968 730.712 134.246 743.38 134.246H782.711V172.13H743.38C709.79 172.13 682.55 144.89 682.55 111.3C682.55 77.709 709.79 50.4692 743.38 50.4692H782.711V88.3531H743.38Z" fill="#FCB1B1"/>
<path fill-rule="evenodd" clip-rule="evenodd" d="M1298.09 0.967285V172.13H1220.35C1186.76 172.13 1159.52 144.89 1159.52 111.299C1159.52 77.7088 1186.76 50.469 1220.35 50.469H1260.2V0.967285H1298.09ZM1260.2 134.246V88.3529H1220.35C1207.69 88.3529 1197.41 98.6315 1197.41 111.299C1197.41 123.967 1207.69 134.246 1220.35 134.246H1260.2Z" fill="#FCB1B1"/>
<path fill-rule="evenodd" clip-rule="evenodd" d="M1060.34 47.2251V111.299C1060.34 123.967 1070.62 134.245 1083.28 134.245C1095.95 134.245 1106.23 123.967 1106.23 111.299V47.2251H1144.11V111.299C1144.11 144.889 1116.87 172.129 1083.28 172.129C1049.69 172.129 1022.45 144.889 1022.45 111.299V47.2251H1060.34Z" fill="#FCB1B1"/>
<path fill-rule="evenodd" clip-rule="evenodd" d="M804.575 172.13V0.967285H842.459V172.13H804.575Z" fill="#FCB1B1"/>
<path fill-rule="evenodd" clip-rule="evenodd" d="M917.284 88.3531C904.61 88.3531 894.337 98.6266 894.337 111.3C894.337 123.973 904.61 134.246 917.284 134.246H947.935C960.608 134.246 970.881 123.973 970.881 111.3C970.881 98.6265 960.608 88.3531 947.935 88.3531H917.284ZM856.453 111.3C856.453 77.7039 883.688 50.4692 917.284 50.4692H947.935C981.53 50.4692 1008.76 77.704 1008.76 111.3C1008.76 144.895 981.53 172.13 947.935 172.13H917.284C883.688 172.13 856.453 144.895 856.453 111.3Z" fill="#FCB1B1"/>
</svg>
