<svg width="226" height="64" viewBox="0 0 226 64" fill="none" xmlns="http://www.w3.org/2000/svg">
<path fill-rule="evenodd" clip-rule="evenodd" d="M141.604 36.7915C139.697 36.7915 138.15 38.3387 138.15 40.2456C138.15 42.1525 139.697 43.6997 141.604 43.6997H147.524V49.4023H141.604C136.548 49.4023 132.447 45.3019 132.447 40.2456C132.447 35.1893 136.548 31.0889 141.604 31.0889H147.524V36.7915H141.604Z" fill="#0D2037"/>
<path fill-rule="evenodd" clip-rule="evenodd" d="M225.103 23.6375V49.4023H213.402C208.345 49.4023 204.245 45.3019 204.245 40.2456C204.245 35.1893 208.345 31.0889 213.402 31.0889H219.4V23.6375H225.103ZM219.4 43.6997V36.7915H213.402C211.495 36.7915 209.948 38.3387 209.948 40.2456C209.948 42.1525 211.495 43.6997 213.402 43.6997H219.4Z" fill="#0D2037"/>
<path fill-rule="evenodd" clip-rule="evenodd" d="M189.315 30.6007V40.2456C189.315 42.1525 190.862 43.6997 192.769 43.6997C194.676 43.6997 196.223 42.1525 196.223 40.2456V30.6007H201.926V40.2456C201.926 45.3019 197.825 49.4023 192.769 49.4023C187.713 49.4023 183.612 45.3019 183.612 40.2456V30.6007H189.315Z" fill="#0D2037"/>
<path fill-rule="evenodd" clip-rule="evenodd" d="M150.815 49.4023V23.6375H156.518V49.4023H150.815Z" fill="#0D2037"/>
<path fill-rule="evenodd" clip-rule="evenodd" d="M167.782 36.7915C165.874 36.7915 164.328 38.3379 164.328 40.2456C164.328 42.1532 165.874 43.6997 167.782 43.6997H172.396C174.303 43.6997 175.85 42.1532 175.85 40.2456C175.85 38.3379 174.303 36.7915 172.396 36.7915H167.782ZM158.625 40.2456C158.625 35.1885 162.725 31.0889 167.782 31.0889H172.396C177.453 31.0889 181.552 35.1885 181.552 40.2456C181.552 45.3027 177.453 49.4023 172.396 49.4023H167.782C162.725 49.4023 158.625 45.3027 158.625 40.2456Z" fill="#0D2037"/>
<path d="M109.736 17.6072H94.3452C90.7948 14.0568 83.0821 6.34408 78.9542 2.21613H48.1721C43.9754 6.41284 36.5011 13.8872 32.7811 17.6072H17.39C13.1933 21.8039 5.719 29.2782 1.99902 32.9982V48.3892C5.32935 51.7195 12.602 58.9922 17.39 63.7802H32.7811C35.3275 61.2338 37.9863 58.575 40.4777 56.0836C43.148 58.7538 45.9328 61.5386 48.1744 63.7802H78.9565C81.5029 61.2338 84.1617 58.575 86.6531 56.0836C89.3233 58.7538 92.1082 61.5386 94.3498 63.7802H109.741C115.322 58.1991 121.455 52.0656 125.132 48.3892V32.9982C121.581 29.4478 113.869 21.7351 109.741 17.6072H109.736Z" fill="#0D2037"/>
<path d="M107.739 15.6108H92.3484C88.7981 12.0604 81.0854 4.34772 76.9574 0.219765H46.1754C41.9787 4.41648 34.5043 11.8908 30.7843 15.6108H15.3933C11.1943 19.8075 3.71998 27.2818 0 31.0018V46.3928C3.33033 49.7232 10.603 56.9958 15.391 61.7839H30.7821C33.3285 59.2374 35.9873 56.5787 38.4787 54.0872C41.1489 56.7574 43.9338 59.5423 46.1754 61.7839H76.9574C79.5039 59.2374 82.1626 56.5787 84.6541 54.0872C87.3243 56.7574 90.1091 59.5423 92.3507 61.7839H107.742C113.323 56.2028 119.456 50.0693 123.133 46.3928V31.0018C119.582 27.4515 111.87 19.7388 107.742 15.6108H107.739Z" fill="#EE8787"/>
<path fill-rule="evenodd" clip-rule="evenodd" d="M15.2373 49.4023V23.6375H20.9399V49.4023H15.2373Z" fill="white"/>
<path fill-rule="evenodd" clip-rule="evenodd" d="M77.2529 49.4023V23.6375H82.9555V49.4023H77.2529Z" fill="white"/>
<path fill-rule="evenodd" clip-rule="evenodd" d="M86.2441 38.577C86.2441 32.5993 91.0917 27.7517 97.0694 27.7517C103.047 27.7517 107.895 32.5964 107.895 38.577V41.4283H92.8135C93.7331 42.798 95.2964 43.6997 97.0694 43.6997H105.043V49.4023H97.0694C91.0917 49.4023 86.2441 44.5547 86.2441 38.577ZM92.8135 35.7257H101.326C100.407 34.3557 98.8432 33.4543 97.0694 33.4543C95.2964 33.4543 93.7331 34.356 92.8135 35.7257Z" fill="white"/>
<path fill-rule="evenodd" clip-rule="evenodd" d="M35.8061 23.6375V40.2456C35.8061 42.1525 37.3533 43.6997 39.2602 43.6997H41.3643C43.2712 43.6997 44.8184 42.1525 44.8184 40.2456V37.3508H50.521V40.2456C50.521 45.3019 46.4206 49.4023 41.3643 49.4023H39.2602C34.2039 49.4023 30.1035 45.3019 30.1035 40.2456V23.6375H35.8061Z" fill="white"/>
<path fill-rule="evenodd" clip-rule="evenodd" d="M41.685 34.5957H24.2266V28.8931H41.685V34.5957Z" fill="white"/>
<path fill-rule="evenodd" clip-rule="evenodd" d="M59.2495 23.6375V40.2456C59.2495 42.1525 60.7967 43.6997 62.7036 43.6997H64.8077C66.7145 43.6997 68.2618 42.1525 68.2618 40.2456V37.3508H73.9643V40.2456C73.9643 45.3019 69.864 49.4023 64.8077 49.4023H62.7036C57.6472 49.4023 53.5469 45.3019 53.5469 40.2456V23.6375H59.2495Z" fill="white"/>
<path fill-rule="evenodd" clip-rule="evenodd" d="M65.1284 34.5957H47.6699V28.8931H65.1284V34.5957Z" fill="white"/>
</svg>
