<svg width="88" height="66" viewBox="0 0 88 66" fill="none" xmlns="http://www.w3.org/2000/svg">
<path d="M76.7948 12.609H66.0226C63.5394 10.1258 58.1406 4.72696 55.2504 1.83678H33.7092C30.7713 4.77465 25.541 10.005 22.937 12.609H12.1648C9.2269 15.5468 3.9966 20.7772 1.39258 23.3812V34.1534C3.72316 36.484 8.81357 41.5744 12.1648 44.9256H22.937C24.7175 43.145 26.5807 41.2818 28.3231 39.5395C30.1926 41.409 32.1417 43.3581 33.7092 44.9256H55.2504C57.0309 43.145 58.8941 41.2818 60.6365 39.5395C62.5061 41.409 64.4551 43.3581 66.0226 44.9256H76.7948C80.6992 41.0211 84.9916 36.7288 87.567 34.1534V23.3812C85.0838 20.898 79.685 15.4992 76.7948 12.609Z" fill="#0D2037"/>
<path d="M75.399 11.2132H64.6268C62.1436 8.72996 56.7448 3.33114 53.8546 0.440964H32.3134C29.3755 3.37884 24.1452 8.60914 21.5412 11.2132H10.769C7.83433 14.1479 2.60402 19.3782 0 21.9822V32.7544C2.33059 35.085 7.42099 40.1754 10.7722 43.5266H21.5444C23.3249 41.7461 25.1881 39.8829 26.9305 38.1405C28.8001 40.01 30.7491 41.9591 32.3166 43.5266H53.8578C55.6383 41.7461 57.5015 39.8829 59.2439 38.1405C61.1135 40.01 63.0625 41.9591 64.63 43.5266H75.4022C79.3067 39.6221 83.599 35.3298 86.1744 32.7544V21.9822C83.6912 19.499 78.2924 14.1002 75.4022 11.21L75.399 11.2132Z" fill="#EE8787"/>
<path fill-rule="evenodd" clip-rule="evenodd" d="M17.0704 56.7295C15.7336 56.7295 14.6524 57.8107 14.6524 59.1475C14.6524 60.4834 15.7359 61.5656 17.0704 61.5656H21.2133V65.5559H17.0704C13.534 65.5559 10.6621 62.6891 10.6621 59.1475C10.6621 55.607 13.5298 52.7392 17.0704 52.7392H21.2133V56.7295H17.0704Z" fill="#0D2037"/>
<path fill-rule="evenodd" clip-rule="evenodd" d="M75.5054 47.5296V65.559H67.3165C63.7759 65.559 60.9082 62.6913 60.9082 59.1507C60.9082 55.6092 63.7801 52.7424 67.3165 52.7424H71.5151V47.5296H75.5054ZM71.5151 61.5687V56.7327H67.3165C65.982 56.7327 64.8985 57.8149 64.8985 59.1507C64.8985 60.4875 65.9797 61.5687 67.3165 61.5687H71.5151Z" fill="#0D2037"/>
<path fill-rule="evenodd" clip-rule="evenodd" d="M50.4571 52.4006V59.1507C50.4571 60.4866 51.5406 61.5687 52.8751 61.5687C54.211 61.5687 55.2931 60.4853 55.2931 59.1507V52.4006H59.2834V59.1507C59.2834 62.6872 56.4166 65.559 52.8751 65.559C49.3387 65.559 46.4668 62.6922 46.4668 59.1507V52.4006H50.4571Z" fill="#0D2037"/>
<path fill-rule="evenodd" clip-rule="evenodd" d="M23.5205 65.5574V47.5264H27.5108V65.5574H23.5205Z" fill="#0D2037"/>
<path fill-rule="evenodd" clip-rule="evenodd" d="M35.3907 56.7327C34.0546 56.7327 32.9727 57.8153 32.9727 59.1491C32.9727 60.483 34.0546 61.5656 35.3907 61.5656H38.6179C39.9541 61.5656 41.036 60.483 41.036 59.1491C41.036 57.8153 39.9541 56.7327 38.6179 56.7327H35.3907ZM28.9824 59.1491C28.9824 55.6101 31.8522 52.7424 35.3907 52.7424H38.6179C42.1565 52.7424 45.0263 55.6101 45.0263 59.1491C45.0263 62.6881 42.1565 65.5559 38.6179 65.5559H35.3907C31.8522 65.5559 28.9824 62.6881 28.9824 59.1491Z" fill="#0D2037"/>
<path fill-rule="evenodd" clip-rule="evenodd" d="M10.6621 34.8592V16.8282H14.6524V34.8592H10.6621Z" fill="white"/>
<path fill-rule="evenodd" clip-rule="evenodd" d="M54.0625 34.8592V16.8282H58.0528V34.8592H54.0625Z" fill="white"/>
<path fill-rule="evenodd" clip-rule="evenodd" d="M60.3584 27.2824C60.3584 23.0996 63.7508 19.7072 67.9336 19.7072C72.1164 19.7072 75.5088 23.0996 75.5088 27.2824V29.2776H64.9552C65.5988 30.2362 66.6929 30.8673 67.9336 30.8673H73.5136V34.8576H67.9336C63.7508 34.8576 60.3584 31.4653 60.3584 27.2824ZM64.9552 25.2873H70.912C70.2684 24.3287 69.1743 23.6975 67.9336 23.6975C66.6929 23.6975 65.5988 24.3287 64.9552 25.2873Z" fill="white"/>
<path fill-rule="evenodd" clip-rule="evenodd" d="M25.0557 16.8282V28.4493C25.0557 29.7852 26.1392 30.8673 27.4737 30.8673H28.9459C30.2817 30.8673 31.3639 29.7839 31.3639 28.4493V26.424H35.3542V28.4493C35.3542 31.9858 32.4874 34.8576 28.9459 34.8576H27.4737C23.9373 34.8576 21.0654 31.9908 21.0654 28.4493V16.8282H25.0557Z" fill="white"/>
<path fill-rule="evenodd" clip-rule="evenodd" d="M29.172 24.4956H16.9531V20.5053H29.172V24.4956Z" fill="white"/>
<path fill-rule="evenodd" clip-rule="evenodd" d="M41.462 16.8282V28.4493C41.462 29.7852 42.5454 30.8674 43.88 30.8674H45.3521C46.688 30.8674 47.7701 29.7839 47.7701 28.4493V26.424H51.7604V28.4493C51.7604 31.9858 48.8936 34.8576 45.3521 34.8576H43.88C40.3435 34.8576 37.4717 31.9908 37.4717 28.4493V16.8282H41.462Z" fill="white"/>
<path fill-rule="evenodd" clip-rule="evenodd" d="M45.5783 24.4956H33.3594V20.5053H45.5783V24.4956Z" fill="white"/>
</svg>
