<svg width="650" height="650" viewBox="0 0 650 650" fill="none" xmlns="http://www.w3.org/2000/svg">
<path d="M448.798 566.255L416.786 621.701H480.809L448.798 566.255Z" fill="#F24836"/>
<path d="M476.479 583.52H421.116L448.797 535.573L476.479 583.52Z" stroke="#0D2037" stroke-width="5"/>
<path d="M448.798 494.893L416.786 550.339H480.809L448.798 494.893Z" fill="#F24836"/>
<path d="M476.479 512.157H421.116L448.797 464.211L476.479 512.157Z" stroke="#0D2037" stroke-width="5"/>
<path d="M448.798 423.53L416.786 478.976H480.809L448.798 423.53Z" fill="#F24836"/>
<path d="M476.479 440.795H421.116L448.797 392.849L476.479 440.795Z" stroke="#0D2037" stroke-width="5"/>
<path d="M62.4432 461.858L25.3418 526.119H99.5446L62.4432 461.858Z" fill="#419BB4"/>
<path d="M95.2148 482.265H29.6719L62.4434 425.503L95.2148 482.265Z" stroke="#0D2037" stroke-width="5"/>
<path d="M62.4432 379.15L25.3418 443.411H99.5446L62.4432 379.15Z" fill="#419BB4"/>
<path d="M95.2148 399.557H29.6719L62.4434 342.795L95.2148 399.557Z" stroke="#0D2037" stroke-width="5"/>
<path d="M62.4432 296.442L25.3418 360.703H99.5446L62.4432 296.442Z" fill="#419BB4"/>
<path d="M95.2148 316.849H29.6719L62.4434 260.087L95.2148 316.849Z" stroke="#0D2037" stroke-width="5"/>
<path d="M549.698 382.541L497.228 473.421H602.168L549.698 382.541Z" fill="#EE8787"/>
<path d="M597.838 412.436H501.558L549.698 329.056L597.838 412.436Z" stroke="#0D2037" stroke-width="5"/>
<path d="M549.698 265.572L497.228 356.452H602.168L549.698 265.572Z" fill="#EE8787"/>
<path d="M597.838 295.468H501.558L549.698 212.087L597.838 295.468Z" stroke="#0D2037" stroke-width="5"/>
<path d="M549.698 148.603L497.228 239.483H602.168L549.698 148.603Z" fill="#EE8787"/>
<path d="M597.838 178.499H501.558L549.698 95.1185L597.838 178.499Z" stroke="#0D2037" stroke-width="5"/>
<path d="M235.74 319.114H167.004V387.849H235.74V319.114Z" fill="#F24836"/>
<path d="M225.765 312.827V377.146H161.446V312.827H225.765Z" stroke="#0D2037" stroke-width="4.41659"/>
<mask id="mask0_91_2803" style="mask-type:alpha" maskUnits="userSpaceOnUse" x="159" y="310" width="69" height="70">
<path d="M227.973 310.619H159.238V379.354H227.973V310.619Z" fill="#0D2037"/>
</mask>
<g mask="url(#mask0_91_2803)">
<line x1="123.793" y1="347.544" x2="210.075" y2="261.262" stroke="#0D2037" stroke-width="4.41659"/>
<line x1="132.014" y1="355.765" x2="218.296" y2="269.482" stroke="#0D2037" stroke-width="4.41659"/>
<line x1="140.234" y1="363.985" x2="226.516" y2="277.703" stroke="#0D2037" stroke-width="4.41659"/>
<line x1="148.454" y1="372.206" x2="234.737" y2="285.924" stroke="#0D2037" stroke-width="4.41659"/>
<line x1="156.675" y1="380.427" x2="242.958" y2="294.144" stroke="#0D2037" stroke-width="4.41659"/>
<line x1="164.897" y1="388.647" x2="251.179" y2="302.365" stroke="#0D2037" stroke-width="4.41659"/>
<line x1="173.116" y1="396.868" x2="259.399" y2="310.585" stroke="#0D2037" stroke-width="4.41659"/>
<line x1="181.336" y1="405.088" x2="267.619" y2="318.806" stroke="#0D2037" stroke-width="4.41659"/>
<line x1="189.558" y1="413.309" x2="275.84" y2="327.027" stroke="#0D2037" stroke-width="4.41659"/>
<line x1="197.778" y1="421.53" x2="284.06" y2="335.247" stroke="#0D2037" stroke-width="4.41659"/>
</g>
<circle cx="296.96" cy="508.59" r="46.0126" stroke="#0D2037" stroke-width="4.01047"/>
<mask id="mask1_91_2803" style="mask-type:alpha" maskUnits="userSpaceOnUse" x="248" y="460" width="97" height="97">
<circle cx="296.96" cy="508.59" r="48.0178" fill="#EE8787"/>
</mask>
<g mask="url(#mask1_91_2803)">
<line x1="221.554" y1="511.64" x2="306.36" y2="426.835" stroke="#0D2037" stroke-width="4.01047"/>
<line x1="229.633" y1="519.72" x2="314.439" y2="434.915" stroke="#0D2037" stroke-width="4.01047"/>
<line x1="237.714" y1="527.8" x2="322.52" y2="442.994" stroke="#0D2037" stroke-width="4.01047"/>
<line x1="245.794" y1="535.88" x2="330.599" y2="451.074" stroke="#0D2037" stroke-width="4.01047"/>
<line x1="253.874" y1="543.96" x2="338.68" y2="459.154" stroke="#0D2037" stroke-width="4.01047"/>
<line x1="261.954" y1="552.04" x2="346.759" y2="467.234" stroke="#0D2037" stroke-width="4.01047"/>
<line x1="270.034" y1="560.12" x2="354.84" y2="475.314" stroke="#0D2037" stroke-width="4.01047"/>
<line x1="278.114" y1="568.2" x2="362.92" y2="483.394" stroke="#0D2037" stroke-width="4.01047"/>
<line x1="286.194" y1="576.28" x2="371" y2="491.474" stroke="#0D2037" stroke-width="4.01047"/>
<line x1="294.273" y1="584.36" x2="379.079" y2="499.554" stroke="#0D2037" stroke-width="4.01047"/>
</g>
<path d="M87.8766 142.212L105.836 160.172L48.5975 217.411L12.4883 181.302L30.4482 163.342L48.5975 181.491L87.8766 142.212Z" fill="#419BB4"/>
<mask id="mask2_91_2803" style="mask-type:alpha" maskUnits="userSpaceOnUse" x="19" y="142" width="94" height="76">
<path d="M94.4381 142.212L112.398 160.172L55.1591 217.411L19.0498 181.302L37.0097 163.342L55.1591 181.491L94.4381 142.212Z" fill="#EE8787"/>
</mask>
<g mask="url(#mask2_91_2803)">
<line x1="23.2053" y1="232.819" x2="23.2053" y2="129.784" stroke="#0D2037" stroke-width="2.73393"/>
<line x1="33.0222" y1="232.819" x2="33.0222" y2="129.784" stroke="#0D2037" stroke-width="2.73393"/>
<line x1="42.8391" y1="232.819" x2="42.8391" y2="129.784" stroke="#0D2037" stroke-width="2.73393"/>
<line x1="52.6555" y1="232.819" x2="52.6555" y2="129.784" stroke="#0D2037" stroke-width="2.73393"/>
<line x1="62.4724" y1="232.819" x2="62.4724" y2="129.784" stroke="#0D2037" stroke-width="2.73393"/>
<line x1="72.2888" y1="232.819" x2="72.2888" y2="129.784" stroke="#0D2037" stroke-width="2.73393"/>
<line x1="82.1057" y1="232.819" x2="82.1057" y2="129.784" stroke="#0D2037" stroke-width="2.73393"/>
<line x1="92.0495" y1="232.819" x2="92.0495" y2="129.784" stroke="#0D2037" stroke-width="2.73393"/>
<line x1="101.866" y1="232.819" x2="101.866" y2="129.784" stroke="#0D2037" stroke-width="2.73393"/>
<line x1="111.683" y1="232.819" x2="111.683" y2="129.784" stroke="#0D2037" stroke-width="2.73393"/>
<path d="M110.465 160.172L55.1592 215.478L20.9824 181.301L37.0098 165.275L55.1592 183.424L56.126 182.457L94.4375 144.145L110.465 160.172Z" stroke="#0D2037" stroke-width="2.73393" stroke-linecap="square"/>
</g>
<circle cx="251.685" cy="131.506" r="28.4701" stroke="#0D2037" stroke-width="5"/>
<path d="M251.685 94.8823C241.972 94.8823 232.657 98.7408 225.789 105.609C218.921 112.477 215.062 121.792 215.062 131.506C215.062 141.219 218.921 150.534 225.789 157.402C232.657 164.27 241.972 168.129 251.685 168.129L251.685 152.739C246.054 152.739 240.653 150.502 236.671 146.52C232.689 142.538 230.452 137.137 230.452 131.506C230.452 125.874 232.689 120.473 236.671 116.491C240.653 112.509 246.054 110.272 251.685 110.272V94.8823Z" fill="#EE8787"/>
<path d="M353.676 455.594L392.79 478.177L392.79 433.011L353.676 455.594Z" fill="#0D2037"/>
<path d="M349.75 453.569L388.865 476.152L388.865 430.985L349.75 453.569Z" fill="#EE8787"/>
<path d="M400.147 277.445H264.945V412.646H400.147V277.445Z" fill="#0D2037"/>
<path d="M389.054 266.353H253.853V401.554H389.054V266.353Z" fill="url(#paint0_linear_91_2803)"/>
<circle cx="290.45" cy="281.512" r="5.83249" transform="rotate(-180 290.45 281.512)" stroke="#0D2037" stroke-width="3"/>
<circle cx="269.573" cy="281.512" r="5.83249" transform="rotate(-180 269.573 281.512)" stroke="#0D2037" stroke-width="3"/>
<circle cx="269.573" cy="302.01" r="5.83249" transform="rotate(-180 269.573 302.01)" stroke="#0D2037" stroke-width="3"/>
<circle cx="290.45" cy="302.01" r="5.83249" transform="rotate(-180 290.45 302.01)" stroke="#0D2037" stroke-width="3"/>
<path d="M365.858 363.856H346.178C341.174 363.856 337.118 367.911 337.118 372.913C337.118 377.915 341.174 381.97 346.178 381.97H365.858C370.862 381.97 374.918 377.915 374.918 372.913C374.918 367.911 370.862 363.856 365.858 363.856Z" stroke="#0D2037" stroke-width="5" stroke-miterlimit="10"/>
<path d="M365.858 334.855H346.178C341.174 334.855 337.118 338.909 337.118 343.911C337.118 348.913 341.174 352.968 346.178 352.968H365.858C370.862 352.968 374.918 348.913 374.918 343.911C374.918 338.909 370.862 334.855 365.858 334.855Z" stroke="#0D2037" stroke-width="5" stroke-miterlimit="10"/>
<path d="M365.858 305.853H346.178C341.174 305.853 337.118 309.908 337.118 314.91C337.118 319.912 341.174 323.967 346.178 323.967H365.858C370.862 323.967 374.918 319.912 374.918 314.91C374.918 309.908 370.862 305.853 365.858 305.853Z" stroke="#0D2037" stroke-width="5" stroke-miterlimit="10"/>
<path d="M397.179 99.5858V90.1195M397.179 90.1195V80.6532M397.179 90.1195L387.712 90.1195M397.179 90.1195H406.645" stroke="#419BB4" stroke-width="5" stroke-linecap="square"/>
<path d="M397.179 244.775V235.309M397.179 235.309V225.842M397.179 235.309L387.712 235.309M397.179 235.309H406.645" stroke="#419BB4" stroke-width="5" stroke-linecap="square"/>
<path d="M397.179 207.503V198.037M397.179 198.037V188.57M397.179 198.037L387.712 198.037M397.179 198.037H406.645" stroke="#419BB4" stroke-width="5" stroke-linecap="square"/>
<path fill-rule="evenodd" clip-rule="evenodd" d="M163.038 448.66H186.085L186.085 425.613L208.892 425.613L208.892 448.66H231.939L231.939 471.467L208.892 471.467L208.892 494.514L186.085 494.514L186.085 471.467L163.038 471.467L163.038 448.66Z" fill="#EE8787"/>
<circle cx="282.191" cy="229.64" r="8.69382" transform="rotate(-90 282.191 229.64)" stroke="#0D2037" stroke-width="5"/>
<circle cx="336.284" cy="229.64" r="8.69382" transform="rotate(-90 336.284 229.64)" stroke="#0D2037" stroke-width="5"/>
<circle cx="309.238" cy="201.671" r="8.69382" transform="rotate(-90 309.238 201.671)" stroke="#0D2037" stroke-width="5"/>
<circle cx="309.238" cy="229.64" r="8.69382" transform="rotate(-90 309.238 229.64)" stroke="#0D2037" stroke-width="5"/>
<circle cx="282.191" cy="201.671" r="8.69382" transform="rotate(-90 282.191 201.671)" stroke="#0D2037" stroke-width="5"/>
<circle cx="336.284" cy="201.671" r="8.69382" transform="rotate(-90 336.284 201.671)" stroke="#0D2037" stroke-width="5"/>
<path d="M162.337 53.0544C162.337 55.5714 160.296 57.6117 157.779 57.6117C155.262 57.6117 153.222 55.5714 153.222 53.0544C153.222 50.5375 155.262 48.4972 157.779 48.4972C160.296 48.4972 162.337 50.5375 162.337 53.0544Z" stroke="#0D2037" stroke-width="3"/>
<path d="M162.337 122.681C162.337 125.198 160.296 127.238 157.779 127.238C155.262 127.238 153.222 125.198 153.222 122.681C153.222 120.164 155.262 118.124 157.779 118.124C160.296 118.124 162.337 120.164 162.337 122.681Z" stroke="#0D2037" stroke-width="3"/>
<path d="M192.593 92.4251C190.076 92.4251 188.035 90.3847 188.035 87.8678C188.035 85.3509 190.076 83.3106 192.593 83.3106C195.11 83.3106 197.15 85.3509 197.15 87.8678C197.15 90.3847 195.11 92.4251 192.593 92.4251Z" stroke="#0D2037" stroke-width="3"/>
<path d="M122.966 92.4251C120.449 92.4251 118.409 90.3847 118.409 87.8678C118.409 85.3509 120.449 83.3106 122.966 83.3106C125.483 83.3106 127.523 85.3509 127.523 87.8678C127.523 90.3847 125.483 92.4251 122.966 92.4251Z" stroke="#0D2037" stroke-width="3"/>
<path d="M179.133 59.9972C177.874 62.1769 175.087 62.9237 172.907 61.6652C170.728 60.4068 169.981 57.6196 171.239 55.4399C172.498 53.2602 175.285 52.5134 177.465 53.7718C179.644 55.0303 180.391 57.8175 179.133 59.9972Z" stroke="#0D2037" stroke-width="3"/>
<path d="M144.319 120.296C143.061 122.475 140.274 123.222 138.094 121.964C135.914 120.705 135.167 117.918 136.426 115.738C137.684 113.559 140.472 112.812 142.651 114.07C144.831 115.329 145.578 118.116 144.319 120.296Z" stroke="#0D2037" stroke-width="3"/>
<path d="M185.65 109.221C183.47 107.963 182.723 105.176 183.982 102.996C185.24 100.816 188.028 100.069 190.207 101.328C192.387 102.586 193.134 105.373 191.875 107.553C190.617 109.733 187.83 110.48 185.65 109.221Z" stroke="#0D2037" stroke-width="3"/>
<path d="M125.351 74.4078C123.172 73.1494 122.425 70.3622 123.683 68.1825C124.942 66.0028 127.729 65.256 129.909 66.5144C132.088 67.7729 132.835 70.5601 131.577 72.7398C130.318 74.9195 127.531 75.6663 125.351 74.4078Z" stroke="#0D2037" stroke-width="3"/>
<path d="M190.207 74.4078C188.028 75.6662 185.24 74.9194 183.982 72.7397C182.723 70.56 183.47 67.7728 185.65 66.5144C187.83 65.2559 190.617 66.0028 191.875 68.1825C193.134 70.3622 192.387 73.1493 190.207 74.4078Z" stroke="#0D2037" stroke-width="3"/>
<path d="M129.909 109.221C127.729 110.48 124.942 109.733 123.683 107.553C122.425 105.373 123.172 102.586 125.351 101.328C127.531 100.069 130.318 100.816 131.577 102.996C132.835 105.176 132.088 107.963 129.909 109.221Z" stroke="#0D2037" stroke-width="3"/>
<path d="M171.239 120.296C169.981 118.116 170.728 115.329 172.907 114.07C175.087 112.812 177.874 113.559 179.133 115.738C180.391 117.918 179.644 120.705 177.465 121.964C175.285 123.222 172.498 122.475 171.239 120.296Z" stroke="#0D2037" stroke-width="3"/>
<path d="M136.426 59.9972C135.167 57.8175 135.914 55.0303 138.094 53.7719C140.274 52.5134 143.061 53.2603 144.319 55.44C145.578 57.6197 144.831 60.4068 142.651 61.6653C140.472 62.9237 137.684 62.1769 136.426 59.9972Z" stroke="#0D2037" stroke-width="3"/>
<path d="M165.5 69.1907C165.125 70.5901 163.686 71.4206 162.287 71.0456C160.888 70.6707 160.057 69.2323 160.432 67.8329C160.807 66.4335 162.245 65.603 163.645 65.978C165.044 66.353 165.875 67.7914 165.5 69.1907Z" stroke="#0D2037" stroke-width="3"/>
<path d="M155.127 107.903C154.752 109.302 153.313 110.133 151.914 109.758C150.515 109.383 149.684 107.944 150.059 106.545C150.434 105.146 151.873 104.315 153.272 104.69C154.671 105.065 155.502 106.504 155.127 107.903Z" stroke="#0D2037" stroke-width="3"/>
<path d="M176.457 95.5882C175.057 95.2132 174.227 93.7748 174.602 92.3754C174.977 90.976 176.415 90.1456 177.814 90.5205C179.214 90.8955 180.044 92.3339 179.669 93.7333C179.294 95.1327 177.856 95.9631 176.457 95.5882Z" stroke="#0D2037" stroke-width="3"/>
<path d="M137.744 85.2153C136.345 84.8403 135.515 83.4019 135.889 82.0025C136.264 80.6031 137.703 79.7727 139.102 80.1476C140.502 80.5226 141.332 81.961 140.957 83.3604C140.582 84.7598 139.144 85.5902 137.744 85.2153Z" stroke="#0D2037" stroke-width="3"/>
<path d="M173.804 75.5531C172.78 76.5775 171.119 76.5775 170.094 75.5531C169.07 74.5287 169.07 72.8678 170.094 71.8434C171.119 70.8189 172.78 70.8189 173.804 71.8434C174.828 72.8678 174.828 74.5287 173.804 75.5531Z" stroke="#0D2037" stroke-width="3"/>
<path d="M145.465 103.892C144.44 104.917 142.779 104.917 141.755 103.892C140.73 102.868 140.73 101.207 141.755 100.183C142.779 99.1582 144.44 99.1582 145.465 100.183C146.489 101.207 146.489 102.868 145.465 103.892Z" stroke="#0D2037" stroke-width="3"/>
<path d="M170.094 103.892C169.07 102.868 169.07 101.207 170.094 100.183C171.119 99.1583 172.78 99.1583 173.804 100.183C174.828 101.207 174.828 102.868 173.804 103.892C172.78 104.917 171.119 104.917 170.094 103.892Z" stroke="#0D2037" stroke-width="3"/>
<path d="M141.755 75.5531C140.73 74.5287 140.73 72.8678 141.755 71.8434C142.779 70.819 144.44 70.819 145.465 71.8434C146.489 72.8678 146.489 74.5287 145.465 75.5531C144.44 76.5776 142.779 76.5776 141.755 75.5531Z" stroke="#0D2037" stroke-width="3"/>
<path d="M177.814 85.2152C176.415 85.5902 174.977 84.7597 174.602 83.3604C174.227 81.961 175.057 80.5226 176.457 80.1476C177.856 79.7726 179.294 80.6031 179.669 82.0025C180.044 83.4019 179.214 84.8403 177.814 85.2152Z" stroke="#0D2037" stroke-width="3"/>
<path d="M139.102 95.5882C137.703 95.9631 136.264 95.1327 135.89 93.7333C135.515 92.3339 136.345 90.8955 137.744 90.5205C139.144 90.1456 140.582 90.976 140.957 92.3754C141.332 93.7748 140.502 95.2132 139.102 95.5882Z" stroke="#0D2037" stroke-width="3"/>
<path d="M160.432 107.903C160.057 106.504 160.888 105.065 162.287 104.69C163.686 104.315 165.125 105.146 165.5 106.545C165.875 107.944 165.044 109.383 163.645 109.758C162.245 110.133 160.807 109.302 160.432 107.903Z" stroke="#0D2037" stroke-width="3"/>
<path d="M150.059 69.1908C149.684 67.7914 150.515 66.353 151.914 65.978C153.313 65.603 154.752 66.4335 155.127 67.8329C155.502 69.2323 154.671 70.6707 153.272 71.0456C151.872 71.4206 150.434 70.5901 150.059 69.1908Z" stroke="#0D2037" stroke-width="3"/>
<path d="M121.649 231.772C121.649 221.035 124.833 210.54 130.798 201.614C136.762 192.687 145.24 185.729 155.159 181.621C165.078 177.512 175.992 176.437 186.522 178.532C197.052 180.626 206.724 185.796 214.316 193.388C221.907 200.979 227.077 210.652 229.172 221.182C231.266 231.711 230.191 242.626 226.083 252.545C221.974 262.464 215.017 270.941 206.09 276.906C197.163 282.871 186.668 286.054 175.932 286.054L175.932 270.141C183.521 270.141 190.939 267.891 197.249 263.675C203.559 259.459 208.477 253.466 211.381 246.455C214.285 239.444 215.045 231.729 213.565 224.286C212.084 216.843 208.43 210.006 203.064 204.64C197.698 199.274 190.861 195.62 183.418 194.139C175.975 192.659 168.26 193.418 161.249 196.323C154.237 199.227 148.245 204.145 144.029 210.454C139.813 216.764 137.562 224.183 137.562 231.772L121.649 231.772Z" fill="#EE8787"/>
<path d="M135.22 231.772C135.22 223.72 137.608 215.848 142.081 209.153C146.555 202.458 152.913 197.24 160.352 194.159C167.791 191.077 175.977 190.271 183.875 191.842C191.772 193.413 199.026 197.29 204.72 202.984C210.413 208.678 214.291 215.932 215.862 223.829C217.433 231.727 216.626 239.912 213.545 247.352C210.464 254.791 205.245 261.149 198.55 265.623C191.855 270.096 183.984 272.484 175.932 272.484L175.932 251.334C179.801 251.334 183.583 250.187 186.8 248.037C190.017 245.888 192.525 242.832 194.005 239.258C195.486 235.683 195.873 231.75 195.119 227.955C194.364 224.16 192.501 220.675 189.765 217.939C187.029 215.203 183.543 213.34 179.748 212.585C175.954 211.83 172.02 212.218 168.446 213.698C164.871 215.179 161.816 217.686 159.666 220.903C157.517 224.12 156.37 227.903 156.37 231.772L135.22 231.772Z" fill="#F24836"/>
<path d="M155.252 231.772C155.252 227.682 156.465 223.683 158.737 220.283C161.01 216.882 164.24 214.231 168.018 212.666C171.797 211.101 175.955 210.691 179.967 211.489C183.979 212.287 187.663 214.256 190.556 217.149C193.448 220.041 195.417 223.726 196.215 227.737C197.013 231.749 196.604 235.907 195.039 239.686C193.473 243.465 190.823 246.695 187.422 248.967C184.021 251.239 180.023 252.452 175.932 252.452L175.932 231.772L155.252 231.772Z" fill="#EBEBD3"/>
<circle cx="175.932" cy="231.772" r="38.2121" transform="rotate(-180 175.932 231.772)" stroke="#0D2037" stroke-width="5"/>
<circle cx="628.944" cy="207.503" r="5.83249" transform="rotate(-180 628.944 207.503)" stroke="#0D2037" stroke-width="5"/>
<circle cx="628.944" cy="247.553" r="5.83249" transform="rotate(-180 628.944 247.553)" stroke="#0D2037" stroke-width="5"/>
<circle cx="628.944" cy="327.653" r="5.83249" transform="rotate(-180 628.944 327.653)" stroke="#0D2037" stroke-width="5"/>
<circle cx="628.944" cy="287.603" r="5.83249" transform="rotate(-180 628.944 287.603)" stroke="#0D2037" stroke-width="5"/>
<circle cx="628.944" cy="367.702" r="5.83249" transform="rotate(-180 628.944 367.702)" stroke="#0D2037" stroke-width="5"/>
<circle cx="436.565" cy="149.396" r="17.2712" fill="#0D2037"/>
<circle cx="434.057" cy="146.888" r="17.2712" fill="#419BB4"/>
<circle cx="436.565" cy="307.933" r="17.2712" fill="#0D2037"/>
<circle cx="434.057" cy="305.426" r="17.2712" fill="#419BB4"/>
<circle cx="436.565" cy="255.088" r="17.2712" fill="#0D2037"/>
<circle cx="434.057" cy="252.58" r="17.2712" fill="#419BB4"/>
<circle cx="436.565" cy="202.242" r="17.2712" fill="#0D2037"/>
<circle cx="434.057" cy="199.734" r="17.2712" fill="#419BB4"/>
<circle cx="200.565" cy="559.482" r="28.7685" stroke="#0D2037" stroke-width="3.54261" stroke-linecap="round" stroke-dasharray="5.67 9.92"/>
<circle cx="195.176" cy="555.433" r="29.5325" fill="#419BB4"/>
<path d="M304.014 61.6013C304.014 52.464 307.643 43.701 314.104 37.24C320.566 30.7789 329.329 27.1492 338.466 27.1492C347.603 27.1492 356.366 30.7789 362.827 37.24C369.288 43.701 372.918 52.464 372.918 61.6013L338.466 61.6013L304.014 61.6013Z" fill="#F24836"/>
<path d="M304.014 96.0533C304.014 86.9161 307.643 78.153 314.104 71.692C320.566 65.231 329.329 61.6012 338.466 61.6012C347.603 61.6012 356.366 65.231 362.827 71.692C369.288 78.153 372.918 86.9161 372.918 96.0533L338.466 96.0533L304.014 96.0533Z" fill="#EE8787"/>
<path d="M304.014 130.505C304.014 121.368 307.643 112.605 314.104 106.144C320.566 99.6831 329.329 96.0533 338.466 96.0533C347.603 96.0534 356.366 99.6831 362.827 106.144C369.288 112.605 372.918 121.368 372.918 130.505L338.466 130.505L304.014 130.505Z" fill="#419BB4"/>
<path d="M304.014 164.958C304.014 155.82 307.643 147.057 314.104 140.596C320.566 134.135 329.329 130.506 338.466 130.506C347.603 130.506 356.366 134.135 362.827 140.596C369.288 147.057 372.918 155.82 372.918 164.958L338.466 164.958L304.014 164.958Z" fill="#0D2037"/>
<path d="M392.792 572.874C392.792 580.078 389.93 586.987 384.836 592.081C379.742 597.175 372.833 600.036 365.629 600.036C358.425 600.036 351.516 597.175 346.422 592.081C341.328 586.987 338.466 580.078 338.466 572.874L365.629 572.874L392.792 572.874Z" fill="#419BB4"/>
<circle cx="251.353" cy="241.775" r="5" fill="#0D2037"/>
<circle cx="250.353" cy="240.775" r="5" fill="#EE8787"/>
<rect x="524.698" y="492.157" width="5" height="15.9906" fill="#0D2037"/>
<rect x="524.698" y="521.167" width="5" height="15.9906" fill="#0D2037"/>
<rect x="549.698" y="512.157" width="5" height="15.9906" transform="rotate(90 549.698 512.157)" fill="#0D2037"/>
<rect x="520.689" y="512.157" width="5" height="15.9906" transform="rotate(90 520.689 512.157)" fill="#0D2037"/>
<rect x="524.698" y="558.751" width="5" height="15.9906" fill="#0D2037"/>
<rect x="524.698" y="587.76" width="5" height="15.9906" fill="#0D2037"/>
<rect x="549.698" y="578.751" width="5" height="15.9906" transform="rotate(90 549.698 578.751)" fill="#0D2037"/>
<rect x="520.689" y="578.751" width="5" height="15.9906" transform="rotate(90 520.689 578.751)" fill="#0D2037"/>
<path d="M115.808 322.465L115.808 549.781C115.808 556.323 121.109 561.627 127.649 561.627C134.19 561.627 139.491 556.323 139.491 549.781V322.465C139.491 315.923 134.19 310.619 127.649 310.619C121.109 310.619 115.808 315.923 115.808 322.465Z" fill="url(#paint1_linear_91_2803)"/>
<circle cx="470.667" cy="77.7364" r="29.4525" transform="rotate(-90 470.667 77.7364)" stroke="#0D2037" stroke-width="3.51641"/>
<circle cx="470.667" cy="77.7364" r="14.5778" transform="rotate(-90 470.667 77.7364)" stroke="#0D2037" stroke-width="3.51641"/>
<path d="M432.78 77.7362C432.78 87.7844 436.772 97.4211 443.877 104.526C450.982 111.632 460.619 115.623 470.667 115.623C480.715 115.623 490.352 111.632 497.457 104.526C504.563 97.4211 508.554 87.7844 508.554 77.7362L492.634 77.7362C492.634 83.5621 490.319 89.1493 486.2 93.2688C482.08 97.3883 476.493 99.7026 470.667 99.7026C464.841 99.7026 459.254 97.3883 455.135 93.2688C451.015 89.1493 448.701 83.5621 448.701 77.7362L432.78 77.7362Z" fill="#F24836"/>
<circle cx="475.667" cy="217.045" r="5" transform="rotate(90 475.667 217.045)" fill="#419BB4"/>
<circle cx="475.667" cy="239.73" r="5" transform="rotate(90 475.667 239.73)" fill="#419BB4"/>
<circle cx="475.667" cy="262.415" r="5" transform="rotate(90 475.667 262.415)" fill="#419BB4"/>
<circle cx="475.667" cy="285.1" r="5" transform="rotate(90 475.667 285.1)" fill="#419BB4"/>
<circle cx="475.667" cy="307.784" r="5" transform="rotate(90 475.667 307.784)" fill="#419BB4"/>
<circle cx="475.667" cy="330.469" r="5" transform="rotate(90 475.667 330.469)" fill="#419BB4"/>
<circle cx="475.667" cy="353.154" r="5" transform="rotate(90 475.667 353.154)" fill="#419BB4"/>
<circle cx="475.667" cy="375.839" r="5" transform="rotate(90 475.667 375.839)" fill="#419BB4"/>
<defs>
<linearGradient id="paint0_linear_91_2803" x1="321.454" y1="266.353" x2="321.454" y2="401.554" gradientUnits="userSpaceOnUse">
<stop stop-color="#EE8787"/>
<stop offset="1" stop-color="#419BB4"/>
</linearGradient>
<linearGradient id="paint1_linear_91_2803" x1="127.649" y1="310.619" x2="127.649" y2="561.627" gradientUnits="userSpaceOnUse">
<stop stop-color="#EE8787"/>
<stop offset="1" stop-color="#419BB4"/>
</linearGradient>
</defs>
</svg>
