<svg width="651" height="651" viewBox="0 0 651 651" fill="none" xmlns="http://www.w3.org/2000/svg">
<path d="M221.317 129.621C221.317 148.399 215.748 166.756 205.316 182.37C194.883 197.984 180.054 210.153 162.705 217.339C145.356 224.526 126.266 226.406 107.848 222.742C89.4304 219.079 72.5127 210.036 59.2343 196.758C45.9558 183.479 36.9131 166.562 33.2496 148.144C29.5861 129.726 31.4664 110.636 38.6526 93.2866C45.8388 75.9375 58.0083 61.109 73.622 50.6763C89.2358 40.2435 107.593 34.675 126.371 34.675L126.371 61.1014C112.819 61.1014 99.5717 65.12 88.3037 72.649C77.0358 80.178 68.2535 90.8793 63.0674 103.4C57.8813 115.92 56.5244 129.697 59.1682 142.988C61.8121 156.28 68.3379 168.489 77.9205 178.071C87.5031 187.654 99.7121 194.18 113.004 196.824C126.295 199.468 140.072 198.111 152.592 192.925C165.113 187.738 175.814 178.956 183.343 167.688C190.872 156.42 194.891 143.173 194.891 129.621L221.317 129.621Z" fill="#419BB4"/>
<path d="M197.58 129.621C197.58 143.705 193.404 157.472 185.579 169.183C177.755 180.893 166.633 190.02 153.622 195.41C140.61 200.799 126.292 202.21 112.479 199.462C98.6654 196.714 85.9772 189.932 76.0183 179.974C66.0595 170.015 59.2775 157.326 56.5299 143.513C53.7822 129.7 55.1924 115.382 60.5821 102.37C65.9718 89.3584 75.0989 78.237 86.8092 70.4124C98.5195 62.5879 112.287 58.4115 126.371 58.4115L126.371 90.8684C118.706 90.8684 111.214 93.1411 104.841 97.3993C98.4684 101.658 93.5014 107.71 90.5683 114.791C87.6352 121.872 86.8678 129.664 88.3631 137.181C89.8583 144.698 93.5492 151.603 98.9688 157.023C104.388 162.443 111.293 166.134 118.811 167.629C126.328 169.124 134.12 168.357 141.201 165.424C148.282 162.49 154.334 157.523 158.593 151.151C162.851 144.778 165.124 137.285 165.124 129.621L197.58 129.621Z" fill="#F24836"/>
<path d="M165.626 129.621C165.626 137.385 163.324 144.975 159.011 151.43C154.697 157.886 148.566 162.917 141.393 165.888C134.22 168.859 126.327 169.637 118.712 168.122C111.098 166.607 104.103 162.869 98.6129 157.379C93.1229 151.889 89.3842 144.894 87.8695 137.279C86.3548 129.664 87.1322 121.771 90.1034 114.598C93.0745 107.425 98.106 101.295 104.562 96.9811C111.017 92.6677 118.607 90.3654 126.371 90.3654L126.371 129.621L165.626 129.621Z" fill="#EBEBD3"/>
<circle cx="126.371" cy="129.621" r="68.7094" stroke="#0D2037" stroke-width="5"/>
<circle cx="126.215" cy="129.189" r="22.1344" transform="rotate(-180 126.215 129.189)" stroke="#0D2037" stroke-width="5"/>
<circle cx="197.439" cy="56.5423" r="13.8489" transform="rotate(-180 197.439 56.5423)" fill="#0D2037"/>
<circle cx="195.125" cy="54.0893" r="13.8489" transform="rotate(-180 195.125 54.0893)" fill="#EE8787"/>
<path d="M449.458 245.301C449.458 226.523 455.027 208.166 465.46 192.552C475.893 176.938 490.721 164.769 508.07 157.583C525.419 150.397 544.51 148.516 562.927 152.18C581.345 155.843 598.263 164.886 611.541 178.164C624.82 191.443 633.862 208.361 637.526 226.778C641.189 245.196 639.309 264.286 632.123 281.635C624.937 298.985 612.767 313.813 597.153 324.246C581.54 334.679 563.183 340.247 544.404 340.247L544.404 313.098C557.813 313.098 570.921 309.122 582.07 301.673C593.22 294.223 601.909 283.634 607.041 271.246C612.172 258.858 613.515 245.226 610.899 232.075C608.283 218.923 601.826 206.843 592.344 197.361C582.863 187.88 570.782 181.423 557.631 178.807C544.479 176.191 530.848 177.533 518.459 182.665C506.071 187.796 495.483 196.486 488.033 207.635C480.583 218.784 476.607 231.892 476.607 245.301L449.458 245.301Z" fill="#419BB4"/>
<path d="M473.195 245.301C473.195 231.217 477.371 217.45 485.196 205.739C493.021 194.029 504.142 184.902 517.154 179.512C530.166 174.123 544.483 172.713 558.297 175.46C572.11 178.208 584.798 184.99 594.757 194.949C604.716 204.907 611.498 217.596 614.246 231.409C616.993 245.222 615.583 259.54 610.193 272.552C604.804 285.564 595.677 296.685 583.966 304.51C572.256 312.334 558.488 316.511 544.404 316.511L544.404 282.776C551.816 282.776 559.062 280.578 565.224 276.46C571.387 272.343 576.19 266.49 579.027 259.642C581.863 252.795 582.605 245.26 581.159 237.99C579.713 230.721 576.144 224.044 570.903 218.803C565.662 213.562 558.985 209.993 551.715 208.547C544.446 207.101 536.911 207.843 530.063 210.679C523.216 213.515 517.363 218.319 513.245 224.481C509.128 230.644 506.93 237.889 506.93 245.301L473.195 245.301Z" fill="#F24836"/>
<path d="M505.149 245.301C505.149 237.537 507.451 229.947 511.765 223.492C516.078 217.036 522.209 212.005 529.382 209.034C536.555 206.063 544.448 205.285 552.063 206.8C559.678 208.315 566.673 212.053 572.162 217.543C577.652 223.033 581.391 230.028 582.906 237.643C584.421 245.258 583.643 253.151 580.672 260.324C577.701 267.497 572.669 273.627 566.214 277.941C559.758 282.254 552.169 284.557 544.405 284.557L544.405 245.301L505.149 245.301Z" fill="#EBEBD3"/>
<circle cx="544.404" cy="245.301" r="68.7094" transform="rotate(-180 544.404 245.301)" stroke="#0D2037" stroke-width="5"/>
<circle cx="544.404" cy="245.301" r="22.1344" transform="rotate(-180 544.404 245.301)" stroke="#0D2037" stroke-width="5"/>
<circle cx="474.625" cy="319.669" r="13.8489" fill="#0D2037"/>
<circle cx="471.326" cy="316.369" r="13.8489" fill="#EE8787"/>
<path d="M310.018 443.345C328.796 443.345 347.153 448.913 362.767 459.346C378.38 469.779 390.55 484.607 397.736 501.956C404.922 519.305 406.803 538.396 403.139 556.814C399.476 575.231 390.433 592.149 377.154 605.427C363.876 618.706 346.958 627.748 328.541 631.412C310.123 635.075 291.032 633.195 273.683 626.009C256.334 618.823 241.506 606.653 231.073 591.04C220.64 575.426 215.072 557.069 215.072 538.291L241.689 538.291C241.689 551.805 245.696 565.015 253.204 576.252C260.712 587.488 271.384 596.246 283.869 601.418C296.355 606.59 310.093 607.943 323.348 605.306C336.602 602.67 348.777 596.162 358.333 586.606C367.889 577.05 374.397 564.875 377.033 551.621C379.67 538.366 378.317 524.628 373.145 512.142C367.973 499.657 359.216 488.985 347.979 481.477C336.742 473.969 323.532 469.962 310.018 469.962L310.018 443.345Z" fill="#419BB4"/>
<path d="M310.017 467.081C324.101 467.081 337.869 471.257 349.579 479.082C361.29 486.906 370.417 498.028 375.806 511.04C381.196 524.051 382.606 538.369 379.859 552.183C377.111 565.996 370.329 578.684 360.37 588.643C350.411 598.602 337.723 605.384 323.91 608.131C310.096 610.879 295.779 609.469 282.767 604.079C269.755 598.689 258.634 589.562 250.809 577.852C242.984 566.142 238.808 552.374 238.808 538.29L271.876 538.29C271.876 545.834 274.113 553.208 278.304 559.481C282.495 565.753 288.452 570.642 295.421 573.528C302.391 576.415 310.06 577.171 317.459 575.699C324.857 574.227 331.653 570.595 336.988 565.26C342.322 559.926 345.954 553.13 347.426 545.731C348.898 538.333 348.143 530.664 345.256 523.694C342.369 516.725 337.48 510.768 331.208 506.577C324.935 502.386 317.561 500.149 310.017 500.149L310.017 467.081Z" fill="#F24836"/>
<path d="M310.017 499.035C317.781 499.035 325.371 501.338 331.826 505.651C338.282 509.965 343.313 516.095 346.285 523.268C349.256 530.441 350.033 538.334 348.518 545.949C347.004 553.564 343.265 560.559 337.775 566.049C332.285 571.539 325.29 575.277 317.676 576.792C310.061 578.307 302.168 577.529 294.995 574.558C287.822 571.587 281.691 566.556 277.377 560.1C273.064 553.645 270.762 546.055 270.762 538.291L310.017 538.291L310.017 499.035Z" fill="#EBEBD3"/>
<circle cx="310.017" cy="538.29" r="68.7094" transform="rotate(-90 310.017 538.29)" stroke="#0D2037" stroke-width="5"/>
<circle cx="309.454" cy="538.645" r="22.1344" transform="rotate(-180 309.454 538.645)" stroke="#0D2037" stroke-width="5"/>
<circle cx="242.601" cy="455.103" r="20.2435" transform="rotate(90 242.601 455.103)" fill="#0D2037"/>
<circle cx="238.672" cy="450.279" r="20.2435" transform="rotate(90 238.672 450.279)" fill="#EE8787"/>
<path d="M203.896 95.7653C203.896 95.7653 338.093 95.7653 439.995 95.7653M551.682 137.716V95.7653C517.864 95.7653 478.815 95.7653 439.995 95.7653M439.995 95.7653V23.9461M556.54 356.363V443.962M428.565 536.11H490.812M200.542 536.11H162.522M123.188 243.162V336.583M123.188 336.583V536.11H162.522M123.188 336.583H24.9097M556.54 443.962V536.11H490.812M556.54 443.962H629.612M490.812 536.11V629.796M162.522 536.11V629.796" stroke="#0D2037" stroke-width="8" stroke-dasharray="18 18"/>
<path d="M290.185 132.072C290.185 136.134 286.892 139.427 282.83 139.427C278.769 139.427 275.476 136.134 275.476 132.072C275.476 128.011 278.769 124.718 282.83 124.718C286.892 124.718 290.185 128.011 290.185 132.072Z" fill="#0D2037"/>
<path d="M290.185 244.433C290.185 248.495 286.892 251.787 282.83 251.787C278.769 251.787 275.476 248.495 275.476 244.433C275.476 240.371 278.769 237.079 282.83 237.079C286.892 237.079 290.185 240.371 290.185 244.433Z" fill="#0D2037"/>
<path d="M339.011 195.607C334.949 195.607 331.656 192.314 331.656 188.253C331.656 184.191 334.949 180.898 339.011 180.898C343.072 180.898 346.365 184.191 346.365 188.253C346.365 192.314 343.072 195.607 339.011 195.607Z" fill="#0D2037"/>
<path d="M226.65 195.607C222.588 195.607 219.295 192.314 219.295 188.253C219.295 184.191 222.588 180.898 226.65 180.898C230.711 180.898 234.004 184.191 234.004 188.253C234.004 192.314 230.711 195.607 226.65 195.607Z" fill="#0D2037"/>
<path d="M317.289 143.276C315.259 146.794 310.761 147.999 307.243 145.968C303.726 143.937 302.521 139.439 304.551 135.922C306.582 132.404 311.08 131.199 314.598 133.23C318.115 135.261 319.32 139.759 317.289 143.276Z" fill="#0D2037"/>
<path d="M261.109 240.584C259.078 244.101 254.58 245.306 251.063 243.275C247.545 241.245 246.34 236.747 248.371 233.229C250.402 229.712 254.9 228.506 258.417 230.537C261.935 232.568 263.14 237.066 261.109 240.584Z" fill="#0D2037"/>
<path d="M327.807 222.712C324.289 220.681 323.084 216.183 325.115 212.666C327.146 209.148 331.644 207.943 335.161 209.974C338.679 212.005 339.884 216.503 337.853 220.02C335.822 223.538 331.324 224.743 327.807 222.712Z" fill="#0D2037"/>
<path d="M230.499 166.531C226.982 164.501 225.777 160.003 227.807 156.485C229.838 152.968 234.336 151.763 237.854 153.793C241.371 155.824 242.576 160.322 240.546 163.84C238.515 167.357 234.017 168.562 230.499 166.531Z" fill="#0D2037"/>
<path d="M335.161 166.531C331.644 168.562 327.146 167.357 325.115 163.84C323.084 160.322 324.289 155.824 327.807 153.793C331.324 151.762 335.822 152.968 337.853 156.485C339.884 160.003 338.679 164.501 335.161 166.531Z" fill="#0D2037"/>
<path d="M237.854 222.712C234.336 224.743 229.838 223.538 227.807 220.02C225.777 216.502 226.982 212.005 230.499 209.974C234.017 207.943 238.515 209.148 240.546 212.666C242.576 216.183 241.371 220.681 237.854 222.712Z" fill="#0D2037"/>
<path d="M304.551 240.584C302.521 237.066 303.726 232.568 307.243 230.537C310.761 228.507 315.259 229.712 317.289 233.229C319.32 236.747 318.115 241.245 314.598 243.275C311.08 245.306 306.582 244.101 304.551 240.584Z" fill="#0D2037"/>
<path d="M248.371 143.276C246.34 139.759 247.545 135.261 251.063 133.23C254.58 131.199 259.078 132.404 261.109 135.922C263.14 139.439 261.935 143.937 258.417 145.968C254.9 147.999 250.402 146.794 248.371 143.276Z" fill="#0D2037"/>
<path d="M287.733 129.621C287.733 133.682 284.44 136.975 280.379 136.975C276.317 136.975 273.024 133.682 273.024 129.621C273.024 125.559 276.317 122.266 280.379 122.266C284.44 122.266 287.733 125.559 287.733 129.621Z" fill="url(#paint0_linear_105_1489)"/>
<path d="M287.733 241.982C287.733 246.043 284.44 249.336 280.379 249.336C276.317 249.336 273.024 246.043 273.024 241.982C273.024 237.92 276.317 234.627 280.379 234.627C284.44 234.627 287.733 237.92 287.733 241.982Z" fill="url(#paint1_linear_105_1489)"/>
<path d="M336.559 193.156C332.498 193.156 329.205 189.863 329.205 185.801C329.205 181.74 332.498 178.447 336.559 178.447C340.621 178.447 343.914 181.74 343.914 185.801C343.914 189.863 340.621 193.156 336.559 193.156Z" fill="url(#paint2_linear_105_1489)"/>
<path d="M224.199 193.156C220.137 193.156 216.844 189.863 216.844 185.801C216.844 181.74 220.137 178.447 224.199 178.447C228.26 178.447 231.553 181.74 231.553 185.801C231.553 189.863 228.26 193.156 224.199 193.156Z" fill="url(#paint3_linear_105_1489)"/>
<path d="M314.838 140.825C312.808 144.342 308.31 145.547 304.792 143.517C301.275 141.486 300.069 136.988 302.1 133.47C304.131 129.953 308.629 128.748 312.146 130.779C315.664 132.809 316.869 137.307 314.838 140.825Z" fill="url(#paint4_linear_105_1489)"/>
<path d="M258.658 238.132C256.627 241.65 252.129 242.855 248.611 240.824C245.094 238.793 243.889 234.295 245.92 230.778C247.95 227.26 252.448 226.055 255.966 228.086C259.483 230.117 260.689 234.615 258.658 238.132Z" fill="url(#paint5_linear_105_1489)"/>
<path d="M325.355 220.261C321.838 218.23 320.632 213.732 322.663 210.214C324.694 206.697 329.192 205.492 332.709 207.523C336.227 209.553 337.432 214.051 335.401 217.569C333.37 221.086 328.873 222.291 325.355 220.261Z" fill="url(#paint6_linear_105_1489)"/>
<path d="M228.048 164.08C224.53 162.049 223.325 157.551 225.356 154.034C227.387 150.516 231.885 149.311 235.402 151.342C238.92 153.373 240.125 157.871 238.094 161.388C236.063 164.906 231.566 166.111 228.048 164.08Z" fill="url(#paint7_linear_105_1489)"/>
<path d="M332.709 164.08C329.192 166.111 324.694 164.906 322.663 161.388C320.632 157.871 321.838 153.373 325.355 151.342C328.873 149.311 333.37 150.516 335.401 154.034C337.432 157.551 336.227 162.049 332.709 164.08Z" fill="url(#paint8_linear_105_1489)"/>
<path d="M235.402 220.26C231.885 222.291 227.387 221.086 225.356 217.569C223.325 214.051 224.53 209.553 228.048 207.522C231.566 205.492 236.063 206.697 238.094 210.214C240.125 213.732 238.92 218.23 235.402 220.26Z" fill="url(#paint9_linear_105_1489)"/>
<path d="M302.1 238.132C300.069 234.615 301.275 230.117 304.792 228.086C308.31 226.055 312.808 227.26 314.838 230.778C316.869 234.295 315.664 238.793 312.146 240.824C308.629 242.855 304.131 241.65 302.1 238.132Z" fill="url(#paint10_linear_105_1489)"/>
<path d="M245.92 140.825C243.889 137.307 245.094 132.809 248.611 130.779C252.129 128.748 256.627 129.953 258.658 133.47C260.689 136.988 259.483 141.486 255.966 143.517C252.448 145.547 247.95 144.342 245.92 140.825Z" fill="url(#paint11_linear_105_1489)"/>
<path d="M365.565 63.6212L365.565 46.3663C365.565 41.9792 362.01 38.4227 357.624 38.4227C353.239 38.4227 349.684 41.9792 349.684 46.3663L349.684 63.6212C349.684 68.0083 353.239 71.5647 357.624 71.5647C362.01 71.5647 365.565 68.0083 365.565 63.6212Z" fill="#EE8787"/>
<path d="M416.917 63.6212L416.917 46.3663C416.917 41.9792 413.362 38.4227 408.977 38.4227C404.591 38.4227 401.036 41.9792 401.036 46.3663L401.036 63.6212C401.036 68.0083 404.591 71.5647 408.977 71.5647C413.362 71.5647 416.917 68.0083 416.917 63.6212Z" fill="#EE8787"/>
<path d="M285.37 63.6212L285.37 46.3663C285.37 41.9792 281.815 38.4227 277.429 38.4227C273.044 38.4227 269.489 41.9792 269.489 46.3663L269.489 63.6212C269.489 68.0083 273.044 71.5647 277.429 71.5647C281.815 71.5647 285.37 68.0083 285.37 63.6212Z" fill="#EE8787"/>
<path d="M392.296 63.6212L392.296 46.3663C392.296 41.9792 388.741 38.4227 384.356 38.4227C379.97 38.4227 376.415 41.9792 376.415 46.3663L376.415 63.6212C376.415 68.0083 379.97 71.5647 384.356 71.5647C388.741 71.5647 392.296 68.0083 392.296 63.6212Z" fill="#EE8787"/>
<path d="M338.833 63.6212L338.833 46.3663C338.833 41.9792 335.278 38.4227 330.892 38.4227C326.507 38.4227 322.952 41.9792 322.952 46.3663L322.952 63.6212C322.952 68.0083 326.507 71.5647 330.892 71.5647C335.278 71.5647 338.833 68.0083 338.833 63.6212Z" fill="#EE8787"/>
<path d="M258.639 63.6212L258.639 46.3663C258.639 41.9792 255.084 38.4227 250.698 38.4227C246.312 38.4227 242.757 41.9792 242.757 46.3663L242.757 63.6212C242.757 68.0083 246.312 71.5647 250.698 71.5647C255.084 71.5647 258.639 68.0083 258.639 63.6212Z" fill="#EE8787"/>
<path d="M312.102 63.6212L312.102 46.3663C312.102 41.9792 308.546 38.4227 304.161 38.4227C299.775 38.4227 296.22 41.9792 296.22 46.3663L296.22 63.6212C296.22 68.0083 299.775 71.5647 304.161 71.5647C308.546 71.5647 312.102 68.0083 312.102 63.6212Z" fill="#EE8787"/>
<path d="M231.907 63.6212L231.907 46.3663C231.907 41.9792 228.352 38.4227 223.967 38.4227C219.581 38.4227 216.026 41.9792 216.026 46.3663L216.026 63.6212C216.026 68.0083 219.581 71.5647 223.967 71.5647C228.352 71.5647 231.907 68.0083 231.907 63.6212Z" fill="#EE8787"/>
<circle cx="530.722" cy="482.884" r="5.83249" transform="rotate(-180 530.722 482.884)" stroke="#0D2037" stroke-width="4"/>
<circle cx="507.844" cy="482.884" r="5.83249" transform="rotate(-180 507.844 482.884)" stroke="#0D2037" stroke-width="4"/>
<circle cx="507.844" cy="505.382" r="5.83249" transform="rotate(-180 507.844 505.382)" stroke="#0D2037" stroke-width="4"/>
<circle cx="530.722" cy="505.382" r="5.83249" transform="rotate(-180 530.722 505.382)" stroke="#0D2037" stroke-width="4"/>
<path d="M457.789 429.418H412.637V474.571H457.789V429.418Z" fill="#EE8787"/>
<path d="M448.313 422.579V464.128H406.765V422.579H448.313Z" stroke="#0D2037" stroke-width="3.60318"/>
<mask id="mask0_105_1489" style="mask-type:alpha" maskUnits="userSpaceOnUse" x="404" y="420" width="47" height="46">
<path d="M450.115 420.777H404.963V465.929H450.115V420.777Z" fill="#0D2037"/>
</mask>
<g mask="url(#mask0_105_1489)">
<line x1="381.431" y1="444.785" x2="438.109" y2="388.107" stroke="#0D2037" stroke-width="3.60318"/>
<line x1="386.831" y1="450.186" x2="443.51" y2="393.507" stroke="#0D2037" stroke-width="3.60318"/>
<line x1="392.231" y1="455.586" x2="448.91" y2="398.907" stroke="#0D2037" stroke-width="3.60318"/>
<line x1="397.631" y1="460.986" x2="454.31" y2="404.307" stroke="#0D2037" stroke-width="3.60318"/>
<line x1="403.031" y1="466.386" x2="459.71" y2="409.707" stroke="#0D2037" stroke-width="3.60318"/>
<line x1="408.432" y1="471.786" x2="465.11" y2="415.107" stroke="#0D2037" stroke-width="3.60318"/>
<line x1="413.832" y1="477.186" x2="470.51" y2="420.507" stroke="#0D2037" stroke-width="3.60318"/>
<line x1="419.231" y1="482.586" x2="475.91" y2="425.907" stroke="#0D2037" stroke-width="3.60318"/>
<line x1="424.632" y1="487.986" x2="481.311" y2="431.307" stroke="#0D2037" stroke-width="3.60318"/>
<line x1="430.032" y1="493.386" x2="486.711" y2="436.708" stroke="#0D2037" stroke-width="3.60318"/>
</g>
<ellipse cx="7.5616" cy="7.56162" rx="7.5616" ry="7.56162" transform="matrix(-1 8.74228e-08 8.74228e-08 1 233.66 327.351)" fill="#419BB4"/>
<ellipse cx="6.80544" cy="6.80545" rx="6.80544" ry="6.80545" transform="matrix(-1 8.74228e-08 8.74228e-08 1 213.921 328.108)" fill="#419BB4"/>
<ellipse cx="6.04928" cy="6.04929" rx="6.04928" ry="6.04929" transform="matrix(-1 8.74228e-08 8.74228e-08 1 195.695 328.864)" fill="#419BB4"/>
<ellipse cx="5.29312" cy="5.29313" rx="5.29312" ry="5.29313" transform="matrix(-1 8.74228e-08 8.74228e-08 1 178.981 329.62)" fill="#419BB4"/>
<ellipse cx="4.53696" cy="4.53697" rx="4.53696" ry="4.53697" transform="matrix(-1 8.74228e-08 8.74228e-08 1 163.78 330.376)" fill="#419BB4"/>
<ellipse cx="3.7808" cy="3.78081" rx="3.7808" ry="3.78081" transform="matrix(-1 8.74228e-08 8.74228e-08 1 150.091 331.132)" fill="#419BB4"/>
<ellipse cx="7.5616" cy="7.56161" rx="7.5616" ry="7.56161" transform="matrix(-1 8.74228e-08 8.74228e-08 1 233.66 302.163)" fill="#0D2037"/>
<ellipse cx="6.80544" cy="6.80545" rx="6.80544" ry="6.80545" transform="matrix(-1 8.74228e-08 8.74228e-08 1 213.921 302.92)" fill="#0D2037"/>
<ellipse cx="6.04928" cy="6.04929" rx="6.04928" ry="6.04929" transform="matrix(-1 8.74228e-08 8.74228e-08 1 195.695 303.676)" fill="#0D2037"/>
<ellipse cx="5.29312" cy="5.29313" rx="5.29312" ry="5.29313" transform="matrix(-1 8.74228e-08 8.74228e-08 1 178.981 304.432)" fill="#0D2037"/>
<ellipse cx="4.53696" cy="4.53697" rx="4.53696" ry="4.53697" transform="matrix(-1 8.74228e-08 8.74228e-08 1 163.78 305.188)" fill="#0D2037"/>
<ellipse cx="3.7808" cy="3.78081" rx="3.7808" ry="3.78081" transform="matrix(-1 8.74228e-08 8.74228e-08 1 150.09 305.944)" fill="#0D2037"/>
<ellipse cx="7.5616" cy="7.56162" rx="7.5616" ry="7.56162" transform="matrix(-1 8.74228e-08 8.74228e-08 1 233.66 276.975)" fill="#EE8787"/>
<ellipse cx="6.80544" cy="6.80545" rx="6.80544" ry="6.80545" transform="matrix(-1 8.74228e-08 8.74228e-08 1 213.921 277.732)" fill="#EE8787"/>
<ellipse cx="6.04928" cy="6.04929" rx="6.04928" ry="6.04929" transform="matrix(-1 8.74228e-08 8.74228e-08 1 195.695 278.488)" fill="#EE8787"/>
<ellipse cx="5.29312" cy="5.29313" rx="5.29312" ry="5.29313" transform="matrix(-1 8.74228e-08 8.74228e-08 1 178.981 279.244)" fill="#EE8787"/>
<ellipse cx="4.53696" cy="4.53697" rx="4.53696" ry="4.53697" transform="matrix(-1 8.74228e-08 8.74228e-08 1 163.78 280)" fill="#EE8787"/>
<ellipse cx="3.7808" cy="3.78081" rx="3.7808" ry="3.78081" transform="matrix(-1 8.74228e-08 8.74228e-08 1 150.091 280.756)" fill="#EE8787"/>
<ellipse cx="7.56159" cy="7.56163" rx="7.56159" ry="7.56163" transform="matrix(-1 8.74228e-08 8.74228e-08 1 233.66 251.787)" fill="#F24836"/>
<ellipse cx="6.80543" cy="6.80546" rx="6.80543" ry="6.80546" transform="matrix(-1 8.74228e-08 8.74228e-08 1 213.921 252.543)" fill="#F24836"/>
<ellipse cx="6.04927" cy="6.0493" rx="6.04927" ry="6.0493" transform="matrix(-1 8.74228e-08 8.74228e-08 1 195.695 253.3)" fill="#F24836"/>
<ellipse cx="5.29311" cy="5.29314" rx="5.29311" ry="5.29314" transform="matrix(-1 8.74228e-08 8.74228e-08 1 178.981 254.056)" fill="#F24836"/>
<ellipse cx="4.53695" cy="4.53697" rx="4.53695" ry="4.53697" transform="matrix(-1 8.74228e-08 8.74228e-08 1 163.78 254.812)" fill="#F24836"/>
<ellipse cx="3.78079" cy="3.78081" rx="3.78079" ry="3.78081" transform="matrix(-1 8.74228e-08 8.74228e-08 1 150.091 255.568)" fill="#F24836"/>
<path fill-rule="evenodd" clip-rule="evenodd" d="M415.094 569.638L431.887 569.638V552.844H448.506V569.638L465.299 569.638V586.256L448.506 586.256L448.506 603.05H431.887V586.256L415.094 586.256L415.094 569.638Z" fill="#EE8787"/>
<path fill-rule="evenodd" clip-rule="evenodd" d="M420.194 574.739L436.988 574.739V557.945H453.606L453.606 574.739L470.4 574.739V591.357H453.606V608.15H436.988V591.357L420.194 591.357L420.194 574.739Z" stroke="#0D2037" stroke-width="3"/>
<path d="M410.201 389.067H366.392L388.296 351.126L410.201 389.067Z" stroke="#0D2037" stroke-width="5"/>
<path d="M410.201 336.107H366.392L388.296 298.166L410.201 336.107Z" stroke="#0D2037" stroke-width="5"/>
<path d="M410.201 283.146H366.392L388.296 245.205L410.201 283.146Z" stroke="#0D2037" stroke-width="5"/>
<path d="M410.201 230.186H366.392L388.296 192.245L410.201 230.186Z" stroke="#0D2037" stroke-width="5"/>
<path d="M480.21 76.4943V67.028M480.21 67.028V57.5616M480.21 67.028L470.744 67.028M480.21 67.028H489.677" stroke="#419BB4" stroke-width="5" stroke-linecap="square"/>
<rect x="171.439" y="454.853" width="2.64256" height="14.9931" fill="#3D4457" stroke="#3D4457" stroke-width="0.5"/>
<rect x="171.439" y="495.46" width="2.64256" height="14.9931" fill="#3D4457" stroke="#3D4457" stroke-width="0.5"/>
<rect x="200.561" y="481.332" width="2.64256" height="14.9931" transform="rotate(90 200.561 481.332)" fill="#3D4457" stroke="#3D4457" stroke-width="0.5"/>
<rect x="159.953" y="481.332" width="2.64256" height="14.9931" transform="rotate(90 159.953 481.332)" fill="#3D4457" stroke="#3D4457" stroke-width="0.5"/>
<rect x="197.496" y="495.409" width="2.64256" height="14.9931" transform="rotate(120 197.496 495.409)" fill="#3D4457" stroke="#3D4457" stroke-width="0.5"/>
<rect x="162.329" y="475.105" width="2.64256" height="14.9931" transform="rotate(120 162.329 475.105)" fill="#3D4457" stroke="#3D4457" stroke-width="0.5"/>
<rect x="187.804" y="506.068" width="2.64256" height="14.9931" transform="rotate(150 187.804 506.068)" fill="#3D4457" stroke="#3D4457" stroke-width="0.5"/>
<rect x="167.501" y="470.901" width="2.64256" height="14.9931" transform="rotate(150 167.501 470.901)" fill="#3D4457" stroke="#3D4457" stroke-width="0.5"/>
<rect x="160.004" y="507.389" width="2.64256" height="14.9931" transform="rotate(-150 160.004 507.389)" fill="#3D4457" stroke="#3D4457" stroke-width="0.5"/>
<rect x="180.308" y="472.222" width="2.64256" height="14.9931" transform="rotate(-150 180.308 472.222)" fill="#3D4457" stroke="#3D4457" stroke-width="0.5"/>
<rect x="149.345" y="497.697" width="2.64256" height="14.9931" transform="rotate(-120 149.345 497.697)" fill="#3D4457" stroke="#3D4457" stroke-width="0.5"/>
<rect x="184.512" y="477.394" width="2.64256" height="14.9931" transform="rotate(-120 184.512 477.394)" fill="#3D4457" stroke="#3D4457" stroke-width="0.5"/>
<path d="M585.678 470.451L570.61 461.752L570.61 479.15L585.678 470.451Z" fill="#F24836"/>
<path d="M104.522 356.709C91.088 356.709 78.2039 362.046 68.7044 371.545C59.2049 381.045 53.8682 393.929 53.8682 407.363C53.8682 420.797 59.2049 433.681 68.7044 443.181C78.2039 452.68 91.088 458.017 104.522 458.017L104.522 407.363L104.522 356.709Z" fill="#EE8787"/>
<mask id="path-106-inside-1_105_1489" fill="white">
<path d="M94.5838 365.773C81.1495 365.773 68.2654 371.109 58.7659 380.609C49.2664 390.108 43.9297 402.992 43.9297 416.427C43.9297 429.861 49.2664 442.745 58.7659 452.245C68.2654 461.744 81.1495 467.081 94.5838 467.081L94.5838 416.427L94.5838 365.773Z"/>
</mask>
<path d="M94.5838 365.773C81.1495 365.773 68.2654 371.109 58.7659 380.609C49.2664 390.108 43.9297 402.992 43.9297 416.427C43.9297 429.861 49.2664 442.745 58.7659 452.245C68.2654 461.744 81.1495 467.081 94.5838 467.081L94.5838 416.427L94.5838 365.773Z" stroke="#071729" stroke-width="8.17097" mask="url(#path-106-inside-1_105_1489)"/>
<mask id="path-107-inside-2_105_1489" fill="white">
<path d="M94.5841 383.255C90.2279 383.255 85.9143 384.113 81.8897 385.78C77.8651 387.447 74.2082 389.89 71.1279 392.97C68.0476 396.051 65.6042 399.708 63.9372 403.732C62.2701 407.757 61.4121 412.07 61.4121 416.427C61.4121 420.783 62.2701 425.096 63.9372 429.121C65.6042 433.146 68.0477 436.802 71.128 439.883C74.2083 442.963 77.8651 445.406 81.8897 447.073C85.9143 448.74 90.2279 449.599 94.5841 449.599L94.5841 416.427L94.5841 383.255Z"/>
</mask>
<path d="M94.5841 383.255C90.2279 383.255 85.9143 384.113 81.8897 385.78C77.8651 387.447 74.2082 389.89 71.1279 392.97C68.0476 396.051 65.6042 399.708 63.9372 403.732C62.2701 407.757 61.4121 412.07 61.4121 416.427C61.4121 420.783 62.2701 425.096 63.9372 429.121C65.6042 433.146 68.0477 436.802 71.128 439.883C74.2083 442.963 77.8651 445.406 81.8897 447.073C85.9143 448.74 90.2279 449.599 94.5841 449.599L94.5841 416.427L94.5841 383.255Z" stroke="#071729" stroke-width="8.17097" mask="url(#path-107-inside-2_105_1489)"/>
<mask id="path-108-inside-3_105_1489" fill="white">
<path d="M94.5837 400.763C90.4294 400.763 86.4453 402.413 83.5077 405.351C80.5702 408.288 78.9199 412.272 78.9199 416.427C78.9199 420.581 80.5702 424.565 83.5077 427.503C86.4453 430.44 90.4294 432.09 94.5837 432.09L94.5837 416.427L94.5837 400.763Z"/>
</mask>
<path d="M94.5837 400.763C90.4294 400.763 86.4453 402.413 83.5077 405.351C80.5702 408.288 78.9199 412.272 78.9199 416.427C78.9199 420.581 80.5702 424.565 83.5077 427.503C86.4453 430.44 90.4294 432.09 94.5837 432.09L94.5837 416.427L94.5837 400.763Z" stroke="#071729" stroke-width="8.17097" mask="url(#path-108-inside-3_105_1489)"/>
<path d="M619.166 108.975C619.166 114.832 616.839 120.449 612.698 124.59C608.557 128.731 602.94 131.058 597.083 131.058C591.226 131.058 585.61 128.731 581.468 124.59C577.327 120.449 575 114.832 575 108.975L597.083 108.975L619.166 108.975Z" fill="#419BB4"/>
<circle cx="597.083" cy="86.8925" r="22.0826" fill="#F24836"/>
<path d="M575 64.8099C575 58.9533 577.327 53.3365 581.468 49.1952C585.61 45.0539 591.226 42.7274 597.083 42.7274C602.94 42.7274 608.556 45.0539 612.698 49.1952C616.839 53.3365 619.166 58.9533 619.166 64.8099L597.083 64.8099L575 64.8099Z" fill="#0D2037"/>
<path d="M398.036 161.109L388.57 161.109M388.57 161.109L379.104 161.109M388.57 161.109L388.57 170.575M388.57 161.109L388.57 151.642" stroke="#F24836" stroke-width="5" stroke-linecap="square"/>
<path d="M398.036 126.266L388.57 126.266M388.57 126.266L379.104 126.266M388.57 126.266L388.57 135.733M388.57 126.266L388.57 116.8" stroke="#F24836" stroke-width="5" stroke-linecap="square"/>
<path d="M364.107 126.266L354.641 126.266M354.641 126.266L345.174 126.266M354.641 126.266L354.641 135.733M354.641 126.266L354.641 116.8" stroke="#F24836" stroke-width="5" stroke-linecap="square"/>
<circle cx="517.719" cy="589.932" r="8.69382" transform="rotate(-90 517.719 589.932)" fill="#F24836"/>
<circle cx="571.812" cy="589.932" r="8.69382" transform="rotate(-90 571.812 589.932)" fill="#F24836"/>
<circle cx="544.766" cy="561.963" r="8.69382" transform="rotate(-90 544.766 561.963)" fill="#F24836"/>
<circle cx="544.766" cy="589.932" r="8.69382" transform="rotate(-90 544.766 589.932)" fill="#F24836"/>
<circle cx="517.719" cy="561.963" r="8.69382" transform="rotate(-90 517.719 561.963)" fill="#F24836"/>
<circle cx="571.812" cy="561.963" r="8.69382" transform="rotate(-90 571.812 561.963)" fill="#F24836"/>
<path d="M338.833 263.886C317.533 263.886 297.105 272.348 282.044 287.409C266.982 302.471 258.521 322.898 258.521 344.199C258.521 365.499 266.982 385.927 282.044 400.988C297.105 416.05 317.533 424.511 338.833 424.511V377.505C330 377.505 321.528 373.996 315.282 367.75C309.036 361.504 305.527 353.032 305.527 344.199C305.527 335.365 309.036 326.894 315.282 320.648C321.528 314.402 330 310.893 338.833 310.893V263.886Z" fill="url(#paint12_linear_105_1489)"/>
<path d="M142.529 368.469L188.724 414.664H142.529V368.469Z" fill="#F24836"/>
<path d="M186.724 370.469V409.836L147.357 370.469H186.724Z" stroke="#071729" stroke-width="4"/>
<path d="M179.048 378.146V402.16L155.033 378.146H179.048Z" stroke="#071729" stroke-width="4"/>
<path d="M171.596 385.597V394.708L162.485 385.597H171.596Z" stroke="#071729" stroke-width="4"/>
<path d="M536.554 414.914L473.101 351.461L536.554 351.461L536.554 414.914Z" fill="#F24836"/>
<path d="M475.101 412.914L475.101 356.289L531.726 412.914L475.101 412.914Z" stroke="#071729" stroke-width="4"/>
<path d="M485.645 402.37L485.645 366.834L521.182 402.37L485.645 402.37Z" stroke="#071729" stroke-width="4"/>
<path d="M495.881 392.134L495.881 377.069L510.946 392.134L495.881 392.134Z" stroke="#071729" stroke-width="4"/>
<path d="M99.4933 302.041H56.6402C52.3964 302.041 48.9561 305.48 48.9561 309.722C48.9561 313.965 52.3964 317.404 56.6402 317.404H99.4933C103.737 317.404 107.178 313.965 107.178 309.722C107.178 305.48 103.737 302.041 99.4933 302.041Z" fill="#419BB4"/>
<circle cx="591.615" cy="399.774" r="16.3279" transform="rotate(-180 591.615 399.774)" stroke="#0D2037" stroke-width="5"/>
<path d="M591.614 420.777C597.185 420.777 602.527 418.564 606.466 414.625C610.405 410.687 612.618 405.344 612.618 399.774C612.618 394.203 610.405 388.861 606.466 384.922C602.527 380.983 597.185 378.77 591.614 378.77L591.614 399.774L591.614 420.777Z" fill="#EE8787"/>
<path d="M450.493 166.176H448.493C442.596 166.176 436.932 163.906 432.67 159.85L432.263 159.452C427.958 155.147 425.539 149.308 425.539 143.221L425.546 142.651C425.692 136.77 428.092 131.16 432.263 126.99L432.67 126.592C436.932 122.536 442.596 120.267 448.493 120.266H450.493V129.958H448.493C445.086 129.958 441.813 131.269 439.351 133.612L439.115 133.843C436.628 136.33 435.231 139.703 435.23 143.221L435.234 143.551C435.319 146.949 436.706 150.19 439.115 152.599L439.351 152.829C441.813 155.172 445.085 156.484 448.493 156.484H450.493V166.176Z" stroke="#071729" stroke-width="4"/>
<path d="M506.805 135.733L472.548 115.955L472.548 155.511L506.805 135.733Z" fill="#F24836"/>
<circle cx="91.2267" cy="545.355" r="13.16" transform="rotate(-180 91.2267 545.355)" stroke="#0D2037" stroke-width="5"/>
<circle cx="91.2267" cy="586.296" r="13.16" transform="rotate(-180 91.2267 586.296)" stroke="#0D2037" stroke-width="5"/>
<circle cx="91.2267" cy="504.414" r="13.16" transform="rotate(-180 91.2267 504.414)" stroke="#0D2037" stroke-width="5"/>
<path d="M58.4224 489.25V479.784M58.4224 479.784V470.318M58.4224 479.784L48.9561 479.784M58.4224 479.784H67.8887" stroke="#419BB4" stroke-width="5" stroke-linecap="square"/>
<path d="M83.6746 287.389C89.908 287.389 95.8861 284.913 100.294 280.505C104.702 276.098 107.178 270.12 107.178 263.886C107.178 257.653 104.702 251.675 100.294 247.267C95.8861 242.859 89.908 240.383 83.6746 240.383L83.6746 254.139C86.2596 254.139 88.7388 255.166 90.5667 256.994C92.3946 258.822 93.4215 261.301 93.4215 263.886C93.4215 266.471 92.3946 268.95 90.5667 270.778C88.7388 272.606 86.2596 273.633 83.6746 273.633L83.6746 287.389Z" fill="#EE8787"/>
<circle cx="296.22" cy="194.838" r="14.1368" stroke="#0D2037" stroke-width="1.98222"/>
<mask id="mask1_105_1489" style="mask-type:alpha" maskUnits="userSpaceOnUse" x="281" y="179" width="31" height="31">
<circle cx="296.22" cy="194.838" r="15.1279" fill="#EE8787"/>
</mask>
<g mask="url(#mask1_105_1489)">
<line x1="271.894" y1="195.544" x2="298.612" y2="168.827" stroke="#0D2037" stroke-width="1.98222"/>
<line x1="274.44" y1="198.09" x2="301.158" y2="171.372" stroke="#0D2037" stroke-width="1.98222"/>
<line x1="276.986" y1="200.636" x2="303.703" y2="173.918" stroke="#0D2037" stroke-width="1.98222"/>
<line x1="279.531" y1="203.181" x2="306.249" y2="176.463" stroke="#0D2037" stroke-width="1.98222"/>
<line x1="282.077" y1="205.727" x2="308.795" y2="179.009" stroke="#0D2037" stroke-width="1.98222"/>
<line x1="284.622" y1="208.272" x2="311.34" y2="181.554" stroke="#0D2037" stroke-width="1.98222"/>
<line x1="287.168" y1="210.818" x2="313.886" y2="184.1" stroke="#0D2037" stroke-width="1.98222"/>
<line x1="289.714" y1="213.363" x2="316.432" y2="186.646" stroke="#0D2037" stroke-width="1.98222"/>
<line x1="292.259" y1="215.909" x2="318.977" y2="189.191" stroke="#0D2037" stroke-width="1.98222"/>
<line x1="294.805" y1="218.455" x2="321.522" y2="191.737" stroke="#0D2037" stroke-width="1.98222"/>
</g>
<path d="M587.917 493.221L571.258 522.074H604.575L587.917 493.221Z" fill="#0D2037"/>
<path d="M587.269 490.815L570.61 519.668H603.927L587.269 490.815Z" fill="#EE8787"/>
<path d="M58.9561 248.922L58.9561 263.997C58.9561 267.83 62.0621 270.937 65.8936 270.937C69.725 270.937 72.8311 267.83 72.8311 263.997L72.8311 248.922C72.8311 245.089 69.725 241.982 65.8936 241.982C62.0621 241.982 58.9561 245.089 58.9561 248.922Z" stroke="#0D2037" stroke-width="5" stroke-miterlimit="10"/>
<path d="M536.35 459.899C531.461 459.899 526.62 458.936 522.103 457.065C517.586 455.194 513.482 452.452 510.025 448.995C506.568 445.538 503.826 441.434 501.955 436.917C500.084 432.4 499.121 427.559 499.121 422.67L536.35 422.67L536.35 459.899Z" fill="#EE8787"/>
<mask id="path-156-inside-4_105_1489" fill="white">
<path d="M531.11 465.929C526.221 465.929 521.38 464.966 516.863 463.095C512.346 461.224 508.242 458.482 504.785 455.025C501.328 451.568 498.585 447.464 496.714 442.947C494.844 438.43 493.881 433.589 493.881 428.7L531.11 428.7L531.11 465.929Z"/>
</mask>
<path d="M531.11 465.929C526.221 465.929 521.38 464.966 516.863 463.095C512.346 461.224 508.242 458.482 504.785 455.025C501.328 451.568 498.585 447.464 496.714 442.947C494.844 438.43 493.881 433.589 493.881 428.7L531.11 428.7L531.11 465.929Z" stroke="#181B23" stroke-width="10" mask="url(#path-156-inside-4_105_1489)"/>
<circle cx="427.361" cy="281.917" r="3.85188" transform="rotate(-180 427.361 281.917)" stroke="#0D2037" stroke-width="3.30208"/>
<circle cx="427.361" cy="308.366" r="3.85188" transform="rotate(-180 427.361 308.366)" stroke="#0D2037" stroke-width="3.30208"/>
<circle cx="427.361" cy="361.265" r="3.85188" transform="rotate(-180 427.361 361.265)" stroke="#0D2037" stroke-width="3.30208"/>
<circle cx="427.361" cy="334.816" r="3.85188" transform="rotate(-180 427.361 334.816)" stroke="#0D2037" stroke-width="3.30208"/>
<circle cx="427.361" cy="387.715" r="3.85188" transform="rotate(-180 427.361 387.715)" stroke="#0D2037" stroke-width="3.30208"/>
<defs>
<linearGradient id="paint0_linear_105_1489" x1="280.379" y1="122.266" x2="280.379" y2="136.975" gradientUnits="userSpaceOnUse">
<stop stop-color="#EE8787"/>
<stop offset="1" stop-color="#F24836"/>
</linearGradient>
<linearGradient id="paint1_linear_105_1489" x1="280.379" y1="234.627" x2="280.379" y2="249.336" gradientUnits="userSpaceOnUse">
<stop stop-color="#EE8787"/>
<stop offset="1" stop-color="#F24836"/>
</linearGradient>
<linearGradient id="paint2_linear_105_1489" x1="336.559" y1="178.447" x2="336.559" y2="193.156" gradientUnits="userSpaceOnUse">
<stop stop-color="#EE8787"/>
<stop offset="1" stop-color="#F24836"/>
</linearGradient>
<linearGradient id="paint3_linear_105_1489" x1="224.199" y1="178.447" x2="224.199" y2="193.156" gradientUnits="userSpaceOnUse">
<stop stop-color="#EE8787"/>
<stop offset="1" stop-color="#F24836"/>
</linearGradient>
<linearGradient id="paint4_linear_105_1489" x1="308.469" y1="129.792" x2="308.469" y2="144.503" gradientUnits="userSpaceOnUse">
<stop stop-color="#EE8787"/>
<stop offset="1" stop-color="#F24836"/>
</linearGradient>
<linearGradient id="paint5_linear_105_1489" x1="252.289" y1="227.099" x2="252.289" y2="241.811" gradientUnits="userSpaceOnUse">
<stop stop-color="#EE8787"/>
<stop offset="1" stop-color="#F24836"/>
</linearGradient>
<linearGradient id="paint6_linear_105_1489" x1="329.032" y1="206.536" x2="329.032" y2="221.247" gradientUnits="userSpaceOnUse">
<stop stop-color="#EE8787"/>
<stop offset="1" stop-color="#F24836"/>
</linearGradient>
<linearGradient id="paint7_linear_105_1489" x1="231.725" y1="150.355" x2="231.725" y2="165.067" gradientUnits="userSpaceOnUse">
<stop stop-color="#EE8787"/>
<stop offset="1" stop-color="#F24836"/>
</linearGradient>
<linearGradient id="paint8_linear_105_1489" x1="329.032" y1="150.355" x2="329.032" y2="165.067" gradientUnits="userSpaceOnUse">
<stop stop-color="#EE8787"/>
<stop offset="1" stop-color="#F24836"/>
</linearGradient>
<linearGradient id="paint9_linear_105_1489" x1="231.725" y1="206.536" x2="231.725" y2="221.247" gradientUnits="userSpaceOnUse">
<stop stop-color="#EE8787"/>
<stop offset="1" stop-color="#F24836"/>
</linearGradient>
<linearGradient id="paint10_linear_105_1489" x1="308.469" y1="227.099" x2="308.469" y2="241.811" gradientUnits="userSpaceOnUse">
<stop stop-color="#EE8787"/>
<stop offset="1" stop-color="#F24836"/>
</linearGradient>
<linearGradient id="paint11_linear_105_1489" x1="252.289" y1="129.792" x2="252.289" y2="144.503" gradientUnits="userSpaceOnUse">
<stop stop-color="#EE8787"/>
<stop offset="1" stop-color="#F24836"/>
</linearGradient>
<linearGradient id="paint12_linear_105_1489" x1="298.677" y1="263.886" x2="298.677" y2="424.511" gradientUnits="userSpaceOnUse">
<stop stop-color="#EE8787"/>
<stop offset="1" stop-color="#419BB4"/>
</linearGradient>
</defs>
</svg>
