<svg width="67" height="66" viewBox="0 0 67 66" fill="none" xmlns="http://www.w3.org/2000/svg">
<path d="M54.9497 28.5045C56.1103 27.9242 57.3224 27.2242 58.5093 26.4V33C58.5093 39.8345 47.4283 45.375 33.7593 45.375C20.0902 45.375 9.00928 39.8345 9.00928 33V26.4C10.1961 27.2242 11.4083 27.9242 12.5689 28.5045C18.4182 31.4291 25.9217 33 33.7593 33C41.5969 33 49.1003 31.4291 54.9497 28.5045Z" fill="#F5F5E6"/>
<path d="M9.00928 47.025V53.625C9.00928 60.4595 20.0902 66 33.7593 66C47.4283 66 58.5093 60.4595 58.5093 53.625V47.025C57.3224 47.8492 56.1103 48.5492 54.9497 49.1295C49.1003 52.0541 41.5969 53.625 33.7593 53.625C25.9217 53.625 18.4182 52.0541 12.5689 49.1295C11.4083 48.5492 10.1961 47.8492 9.00928 47.025Z" fill="#F5F5E6"/>
<path d="M33.7593 0C47.4283 0 58.5093 5.54048 58.5093 12.375C58.5093 19.2095 47.4283 24.75 33.7593 24.75C20.0902 24.75 9.00928 19.2095 9.00928 12.375C9.00928 5.54048 20.0902 0 33.7593 0Z" fill="#F5F5E6"/>
</svg>
