<svg width="65" height="64" viewBox="0 0 65 64" fill="none" xmlns="http://www.w3.org/2000/svg">
<path fill-rule="evenodd" clip-rule="evenodd" d="M60.7593 35.9375C60.7593 51.1598 48.2233 63.5 32.7593 63.5C17.2953 63.5 4.75928 51.1598 4.75928 35.9375C4.75928 22.1562 16.7593 12.3125 16.7593 12.3125H24.7593V18.2188C24.7593 20.3934 26.5501 22.1562 28.7593 22.1562C30.9684 22.1562 32.7593 20.3934 32.7593 18.2188V0.5H40.7593C40.7593 0.5 60.7593 12.3125 60.7593 35.9375ZM40.7593 47.75C40.7593 52.0992 37.1776 55.625 32.7593 55.625C28.341 55.625 24.7593 52.0992 24.7593 47.75C24.7593 37.9062 32.7593 32 32.7593 32C32.7593 32 40.7593 37.9062 40.7593 47.75Z" fill="#F5F5E6"/>
</svg>
