<svg width="49" height="49" viewBox="0 0 49 49" fill="none" xmlns="http://www.w3.org/2000/svg">
<path d="M24.125 45.2495L3.74733 24.8718C1.34795 22.4725 0 19.2182 0 15.825V15.2511C0 8.502 5.47124 3.03076 12.2203 3.03076C15.5157 3.03076 18.6525 4.3605 20.9377 6.6869L17.659 18.9234L23.4712 24.7356L21.4276 28.8228L26.8221 31.52L30.8098 23.5447L24.5595 17.2944L29.3857 4.99461C31.342 3.72748 33.6443 3.03076 36.0296 3.03076C42.7788 3.03076 48.25 8.502 48.25 15.2511V15.825C48.25 19.2182 46.902 22.4725 44.5027 24.8718L24.125 45.2495Z" fill="#FF8B7E"/>
</svg>
