<svg width="66" height="66" viewBox="0 0 66 66" fill="none" xmlns="http://www.w3.org/2000/svg">
<path d="M12.2399 8.2793H0V20.5192C6.75989 20.5192 12.2399 15.0392 12.2399 8.2793Z" fill="#78C7DD"/>
<path fill-rule="evenodd" clip-rule="evenodd" d="M20.3998 8.2793C20.3998 19.5458 11.2665 28.6791 0 28.6791V36.839C11.2665 36.839 20.3998 45.9723 20.3998 57.2388H44.8795C44.8795 45.9723 54.0128 36.839 65.2793 36.839V28.6791C54.0128 28.6791 44.8795 19.5458 44.8795 8.2793H20.3998ZM32.6396 40.9189C37.1462 40.9189 40.7996 37.2656 40.7996 32.759C40.7996 28.2524 37.1462 24.5991 32.6396 24.5991C28.1331 24.5991 24.4797 28.2524 24.4797 32.759C24.4797 37.2656 28.1331 40.9189 32.6396 40.9189Z" fill="#78C7DD"/>
<path d="M65.2793 8.2793V20.5192C58.5194 20.5192 53.0394 15.0392 53.0394 8.2793H65.2793Z" fill="#78C7DD"/>
<path d="M65.2793 57.2388H53.0394C53.0394 50.4789 58.5194 44.9989 65.2793 44.9989V57.2388Z" fill="#78C7DD"/>
<path d="M12.2399 57.2388C12.2399 50.4789 6.75989 44.9989 0 44.9989V57.2388H12.2399Z" fill="#78C7DD"/>
</svg>
