<svg width="66" height="66" viewBox="0 0 66 66" fill="none" xmlns="http://www.w3.org/2000/svg">
<path fill-rule="evenodd" clip-rule="evenodd" d="M40.9482 65.5171L49.1378 57.3275V40.9482L55.9223 34.1637C62.0658 28.0202 65.5171 19.688 65.5171 10.9999V0H54.5172C45.8291 0 37.4968 3.45134 31.3534 9.59476L24.5689 16.3793H8.18964L0 24.5689L40.9482 65.5171ZM42.9956 28.6637C46.3878 28.6637 49.1378 25.9138 49.1378 22.5215C49.1378 19.1292 46.3878 16.3793 42.9956 16.3793C39.6033 16.3793 36.8534 19.1292 36.8534 22.5215C36.8534 25.9138 39.6033 28.6637 42.9956 28.6637Z" fill="#78C7DD"/>
<path d="M20.1768 56.3274L9.18971 45.3403L0 61.4223L4.09482 65.5171L20.1768 56.3274Z" fill="#78C7DD"/>
</svg>
