<svg width="32" height="32" viewBox="0 0 32 32" fill="none" xmlns="http://www.w3.org/2000/svg">
<path d="M15.999 9.19995C18.199 9.19995 18.499 9.19995 19.399 9.19995C20.199 9.19995 20.599 9.39995 20.899 9.49995C21.299 9.69995 21.599 9.79995 21.899 10.1C22.199 10.4 22.399 10.7 22.499 11.1C22.599 11.4 22.699 11.8 22.799 12.6C22.799 13.5 22.799 13.7 22.799 16C22.799 18.3 22.799 18.5 22.799 19.4C22.799 20.2 22.599 20.6 22.499 20.9C22.299 21.3 22.199 21.6 21.899 21.9C21.599 22.2 21.299 22.4 20.899 22.5C20.599 22.6 20.199 22.7 19.399 22.8C18.499 22.8 18.299 22.8 15.999 22.8C13.699 22.8 13.499 22.8 12.599 22.8C11.799 22.8 11.399 22.6 11.099 22.5C10.699 22.3 10.399 22.2 10.099 21.9C9.79898 21.6 9.59897 21.3 9.49897 20.9C9.39897 20.6 9.29897 20.2 9.19897 19.4C9.19897 18.5 9.19897 18.3 9.19897 16C9.19897 13.7 9.19897 13.5 9.19897 12.6C9.19897 11.8 9.39897 11.4 9.49897 11.1C9.69897 10.7 9.79898 10.4 10.099 10.1C10.399 9.79995 10.699 9.59995 11.099 9.49995C11.399 9.39995 11.799 9.29995 12.599 9.19995C13.499 9.19995 13.799 9.19995 15.999 9.19995ZM15.999 7.69995C13.699 7.69995 13.499 7.69995 12.599 7.69995C11.699 7.69995 11.099 7.89995 10.599 8.09995C10.099 8.29995 9.59898 8.59995 9.09898 9.09995C8.59898 9.59995 8.39898 9.99995 8.09898 10.6C7.89898 11.1 7.79897 11.7 7.69897 12.6C7.69897 13.5 7.69897 13.8 7.69897 16C7.69897 18.3 7.69897 18.5 7.69897 19.4C7.69897 20.3 7.89898 20.9 8.09898 21.4C8.29898 21.9 8.59898 22.4 9.09898 22.9C9.59898 23.4 9.99898 23.6 10.599 23.9C11.099 24.1 11.699 24.1999 12.599 24.2999C13.499 24.2999 13.799 24.2999 15.999 24.2999C18.199 24.2999 18.499 24.2999 19.399 24.2999C20.299 24.2999 20.899 24.1 21.399 23.9C21.899 23.7 22.399 23.4 22.899 22.9C23.399 22.4 23.599 22 23.899 21.4C24.099 20.9 24.199 20.3 24.299 19.4C24.299 18.5 24.299 18.2 24.299 16C24.299 13.8 24.299 13.5 24.299 12.6C24.299 11.7 24.099 11.1 23.899 10.6C23.699 10.1 23.399 9.59995 22.899 9.09995C22.399 8.59995 21.999 8.39995 21.399 8.09995C20.899 7.89995 20.299 7.79995 19.399 7.69995C18.499 7.69995 18.299 7.69995 15.999 7.69995Z" fill="white"/>
<path d="M15.999 11.7C13.599 11.7 11.699 13.6 11.699 16C11.699 18.4 13.599 20.3 15.999 20.3C18.399 20.3 20.299 18.4 20.299 16C20.299 13.6 18.399 11.7 15.999 11.7ZM15.999 18.8C14.499 18.8 13.199 17.6 13.199 16C13.199 14.5 14.399 13.2 15.999 13.2C17.499 13.2 18.799 14.4 18.799 16C18.799 17.5 17.499 18.8 15.999 18.8Z" fill="white"/>
<path d="M20.399 12.6C20.9513 12.6 21.399 12.1522 21.399 11.6C21.399 11.0477 20.9513 10.6 20.399 10.6C19.8467 10.6 19.399 11.0477 19.399 11.6C19.399 12.1522 19.8467 12.6 20.399 12.6Z" fill="white"/>
</svg>
