<svg width="32" height="32" viewBox="0 0 32 32" fill="none" xmlns="http://www.w3.org/2000/svg">
<path d="M11.599 24H8.19902V13.3H11.599V24ZM9.89902 11.8C8.79902 11.8 7.99902 11 7.99902 9.9C7.99902 8.8 8.89902 8 9.89902 8C10.999 8 11.799 8.8 11.799 9.9C11.799 11 10.999 11.8 9.89902 11.8ZM23.999 24H20.599V18.2C20.599 16.5 19.899 16 18.899 16C17.899 16 16.899 16.8 16.899 18.3V24H13.499V13.3H16.699V14.8C16.999 14.1 18.199 13 19.899 13C21.799 13 23.799 14.1 23.799 17.4V24H23.999Z" fill="white"/>
</svg>
