<svg width="32" height="32" viewBox="0 0 32 32" fill="none" xmlns="http://www.w3.org/2000/svg">
<path d="M18.9801 8.1227C18.9801 8.1227 21.5519 8.06805 24.2508 10.0918C24.2508 10.0918 26.9524 14.9876 26.9525 21.0269C26.9525 21.0269 25.3576 23.7462 21.2125 23.8775C21.1881 23.8483 20.5282 23.0588 19.9761 22.3595C22.407 21.6726 23.3499 20.1586 23.3693 20.1271C22.6005 20.6333 21.8687 20.9892 21.2125 21.233C20.2748 21.6268 19.3738 21.8912 18.4924 22.0412C16.6925 22.3786 15.0425 22.2831 13.6361 22.0206C12.567 21.8143 11.6462 21.5148 10.8772 21.2147C10.4461 21.046 9.97651 20.8406 9.50798 20.5782C9.45211 20.541 9.39671 20.5214 9.34084 20.4843C9.30339 20.4656 9.28401 20.4458 9.26528 20.4271C8.94132 20.2471 8.75542 20.1188 8.74096 20.1088C8.76577 20.1495 9.67355 21.6177 12.022 22.3206C11.4637 23.0278 10.7757 23.8645 10.765 23.8775C6.62038 23.7459 5.04553 21.0269 5.04553 21.0269C5.04567 14.9996 7.73429 10.1112 7.74498 10.0918C10.4173 8.08754 12.9622 8.12176 13.0157 8.1227L13.2034 8.34708C9.87404 9.30898 8.31394 10.7639 8.27159 10.8038C8.29315 10.7921 8.70238 10.5714 9.37747 10.2612C11.3844 9.37966 12.9797 9.13603 13.6361 9.07976C13.7484 9.06104 13.8421 9.04084 13.9544 9.04084C15.0985 8.89081 16.3933 8.85416 17.7437 9.0042C19.5254 9.21056 21.4394 9.73485 23.3899 10.8038C23.3758 10.7905 21.8922 9.39332 18.7191 8.42264L18.9801 8.1227ZM12.4913 15.1197C11.4223 15.1197 10.5774 16.057 10.5772 17.201C10.5772 18.3451 11.441 19.2823 12.4913 19.2823C13.5604 19.2822 14.4055 18.3451 14.4055 17.201C14.424 16.057 13.5603 15.1198 12.4913 15.1197ZM19.3373 15.1197C18.2683 15.1198 17.4233 16.057 17.4232 17.201C17.4232 18.3451 18.2869 19.2822 19.3373 19.2823C20.4064 19.2823 21.2514 18.3451 21.2514 17.201C21.2512 16.057 20.4063 15.1197 19.3373 15.1197Z" fill="white"/>
</svg>
