<svg width="79" height="79" viewBox="0 0 79 79" fill="none" xmlns="http://www.w3.org/2000/svg">
<path d="M78.5207 39.2341C78.5207 46.9908 76.2206 54.5733 71.9113 61.0227C67.6019 67.4721 61.4768 72.4988 54.3106 75.4672C47.1444 78.4355 39.2589 79.2122 31.6512 77.6989C24.0436 76.1857 17.0556 72.4505 11.5708 66.9657C6.08599 61.4809 2.3508 54.4929 0.837554 46.8853C-0.675695 39.2776 0.100959 31.3921 3.06931 24.2259C6.03765 17.0597 11.0644 10.9346 17.5138 6.62524C23.9632 2.31586 31.5457 0.015747 39.3024 0.0157471L39.3024 11.219C33.7615 11.219 28.345 12.862 23.738 15.9404C19.1309 19.0187 15.5401 23.3941 13.4197 28.5132C11.2993 33.6323 10.7445 39.2652 11.8255 44.6996C12.9065 50.134 15.5747 55.1259 19.4926 59.0438C23.4106 62.9618 28.4025 65.63 33.8369 66.711C39.2713 67.792 44.9042 67.2372 50.0233 65.1168C55.1424 62.9964 59.5178 59.4056 62.5961 54.7985C65.6745 50.1915 67.3175 44.775 67.3175 39.2341H78.5207Z" fill="#F24836"/>
<path d="M68.7167 39.2346C68.7167 45.0521 66.9917 50.7389 63.7596 55.576C60.5276 60.4131 55.9338 64.1831 50.5591 66.4094C45.1845 68.6356 39.2703 69.2181 33.5646 68.0832C27.8589 66.9483 22.6179 64.1469 18.5043 60.0333C14.3907 55.9197 11.5893 50.6787 10.4543 44.9729C9.3194 39.2672 9.90189 33.3531 12.1282 27.9784C14.3544 22.6038 18.1245 18.0099 22.9615 14.7779C27.7986 11.5459 33.4855 9.8208 39.303 9.8208L39.303 25.4103C36.5688 25.4103 33.896 26.2211 31.6226 27.7401C29.3492 29.2591 27.5773 31.4182 26.531 33.9443C25.4846 36.4703 25.2109 39.2499 25.7443 41.9316C26.2777 44.6132 27.5943 47.0765 29.5277 49.0098C31.4611 50.9432 33.9243 52.2598 36.606 52.7932C39.2876 53.3267 42.0672 53.0529 44.5933 52.0066C47.1193 50.9602 49.2784 49.1883 50.7974 46.915C52.3165 44.6416 53.1272 41.9688 53.1272 39.2346H68.7167Z" fill="#EE8787"/>
<path d="M54.2442 39.2342C54.2442 42.1892 53.3679 45.078 51.7261 47.535C50.0844 49.9921 47.7509 51.9071 45.0207 53.038C42.2906 54.1689 39.2864 54.4648 36.3881 53.8882C33.4898 53.3117 30.8276 51.8887 28.738 49.7992C26.6484 47.7096 25.2254 45.0473 24.6489 42.149C24.0724 39.2507 24.3683 36.2466 25.4991 33.5164C26.63 30.7863 28.5451 28.4528 31.0021 26.811C33.4592 25.1693 36.3479 24.293 39.303 24.293L39.303 39.2342H54.2442Z" fill="#EBEBD3"/>
<circle cx="39.3029" cy="39.2346" r="27.6076" stroke="#0D2037" stroke-width="3.61242"/>
</svg>
