<svg width="89" height="45" viewBox="0 0 89 45" fill="none" xmlns="http://www.w3.org/2000/svg">
<path d="M22.1254 44.5902C16.2688 44.5902 10.652 42.2636 6.51069 38.1224C2.36941 33.9811 0.0428563 28.3643 0.0428571 22.5076C0.042858 16.651 2.36941 11.0342 6.51069 6.89288C10.652 2.75159 16.2688 0.425044 22.1254 0.425044L22.1254 22.5076L22.1254 44.5902Z" fill="#419BB4"/>
<circle cx="44.2075" cy="22.5076" r="22.0826" transform="rotate(90 44.2075 22.5076)" fill="#F24836"/>
<path d="M66.2906 0.425189C72.1472 0.42519 77.764 2.75174 81.9053 6.89303C86.0466 11.0343 88.3732 16.6511 88.3732 22.5078C88.3732 28.3644 86.0466 33.9812 81.9053 38.1225C77.764 42.2638 72.1472 44.5903 66.2906 44.5903L66.2906 22.5078L66.2906 0.425189Z" fill="#0D2037"/>
</svg>
