<svg width="80" height="79" viewBox="0 0 80 79" fill="none" xmlns="http://www.w3.org/2000/svg">
<path d="M79.2063 39.5074C79.2063 47.2641 76.9062 54.8466 72.5968 61.296C68.2874 67.7454 62.1624 72.7722 54.9961 75.7405C47.8299 78.7088 39.9444 79.4855 32.3368 77.9723C24.7292 76.459 17.7411 72.7238 12.2563 67.239C6.77154 61.7542 3.03635 54.7662 1.5231 47.1586C0.00985157 39.5509 0.786506 31.6654 3.75485 24.4992C6.7232 17.333 11.7499 11.2079 18.1993 6.89855C24.6488 2.58918 32.2312 0.289062 39.9879 0.289063L39.9879 39.5074L79.2063 39.5074Z" fill="#F24836"/>
<path d="M69.4018 39.5078C69.4018 45.3253 67.6767 51.0121 64.4447 55.8492C61.2127 60.6863 56.6188 64.4563 51.2442 66.6826C45.8695 68.9088 39.9554 69.4913 34.2497 68.3564C28.5439 67.2215 23.3029 64.4201 19.1893 60.3065C15.0757 56.1929 12.2743 50.9518 11.1394 45.2461C10.0045 39.5404 10.587 33.6263 12.8132 28.2516C15.0395 22.8769 18.8095 18.2831 23.6466 15.0511C28.4837 11.8191 34.1705 10.094 39.988 10.094L39.988 39.5078H69.4018Z" fill="#EE8787"/>
<path d="M54.9302 39.5076C54.9302 42.4627 54.0539 45.3514 52.4122 47.8085C50.7704 50.2655 48.4369 52.1806 45.7068 53.3114C42.9766 54.4423 39.9725 54.7382 37.0742 54.1617C34.1758 53.5852 31.5136 52.1622 29.424 50.0726C27.3345 47.983 25.9115 45.3208 25.3349 42.4225C24.7584 39.5242 25.0543 36.52 26.1852 33.7898C27.316 31.0597 29.2311 28.7262 31.6882 27.0844C34.1452 25.4427 37.0339 24.5664 39.989 24.5664L39.989 39.5076H54.9302Z" fill="#EBEBD3"/>
<circle cx="39.988" cy="39.5078" r="27.6076" stroke="#0D2037" stroke-width="3.61242"/>
</svg>
