<svg width="63" height="63" viewBox="0 0 63 63" fill="none" xmlns="http://www.w3.org/2000/svg">
<path d="M60.9021 2.10111L60.9021 15.7019L47.3013 15.7019L47.3013 2.1011L60.9021 2.10111Z" stroke="#0D2037" stroke-width="4.06891"/>
<path d="M60.9021 24.7071L60.9021 38.3078L47.3013 38.3078L47.3013 24.7071L60.9021 24.7071Z" stroke="#0D2037" stroke-width="4.06891"/>
<path d="M60.9021 47.3133L60.9021 60.914L47.3013 60.914L47.3013 47.3133L60.9021 47.3133Z" stroke="#0D2037" stroke-width="4.06891"/>
<path d="M38.3278 24.7071L38.3278 38.3078L24.7271 38.3078L24.7271 24.7071L38.3278 24.7071Z" stroke="#0D2037" stroke-width="4.06891"/>
<path d="M38.3278 47.3133L38.3278 60.914L24.7271 60.914L24.7271 47.3133L38.3278 47.3133Z" stroke="#0D2037" stroke-width="4.06891"/>
<path d="M15.7546 24.7071L15.7546 38.3078L2.15385 38.3078L2.15385 24.7071L15.7546 24.7071Z" stroke="#0D2037" stroke-width="4.06891"/>
<path d="M15.7546 47.3133L15.7546 60.914L2.15385 60.914L2.15385 47.3133L15.7546 47.3133Z" stroke="#0D2037" stroke-width="4.06891"/>
<path d="M38.3278 2.10111L38.3278 15.7019L24.7271 15.7019L24.7271 2.1011L38.3278 2.10111Z" stroke="#0D2037" stroke-width="4.06891"/>
<path d="M15.7546 2.10111L15.7546 15.7019L2.15385 15.7019L2.15385 2.1011L15.7546 2.10111Z" stroke="#0D2037" stroke-width="4.06891"/>
</svg>
