<svg width="132" height="67" viewBox="0 0 132 67" fill="none" xmlns="http://www.w3.org/2000/svg">
<path d="M32.9098 66.2639C24.2222 66.2639 15.8905 62.8128 9.74747 56.6698C3.60444 50.5267 0.153321 42.195 0.15332 33.5074C0.15332 24.8199 3.60444 16.4882 9.74747 10.3451C15.8905 4.2021 24.2222 0.750977 32.9098 0.750977L32.9098 33.5074V66.2639Z" fill="#EE8787"/>
<path d="M65.6662 66.2639C56.9786 66.2639 48.6469 62.8128 42.5039 56.6698C36.3608 50.5267 32.9098 42.195 32.9098 33.5074C32.9098 24.8199 36.3608 16.4882 42.5039 10.3451C48.6469 4.2021 56.9786 0.750984 65.6662 0.750983V33.5075V66.2639Z" fill="#F24836"/>
<path d="M98.4226 66.2639C89.735 66.2639 81.4033 62.8128 75.2602 56.6698C69.1172 50.5267 65.6662 42.195 65.6662 33.5075C65.6662 24.8199 69.1172 16.4882 75.2602 10.3451C81.4033 4.2021 89.735 0.750982 98.4226 0.750981V33.5075V66.2639Z" fill="#0D2037"/>
<path d="M131.179 66.2639C122.492 66.2639 114.16 62.8128 108.017 56.6698C101.874 50.5267 98.4226 42.195 98.4226 33.5075C98.4226 24.8199 101.874 16.4882 108.017 10.3451C114.16 4.2021 122.492 0.750981 131.179 0.75098V66.2639Z" fill="#419BB4"/>
</svg>
